<mxfile host="app.diagrams.net" modified="2023-04-04T23:56:27.289Z" agent="Mozilla/5.0 (Windows NT 10.0; Win64; x64) AppleWebKit/537.36 (KHTML, like Gecko) Chrome/111.0.0.0 Safari/537.36" etag="E7CYcKrRihX0SYD0Edsz" version="21.1.4" type="google">
  <diagram name="Page-1" id="1Gu3uk535W98HMgUNEu_">
    <mxGraphModel grid="1" page="1" gridSize="10" guides="1" tooltips="1" connect="1" arrows="1" fold="1" pageScale="1" pageWidth="850" pageHeight="1100" math="0" shadow="0">
      <root>
        <mxCell id="0" />
        <mxCell id="1" parent="0" />
        <mxCell id="ugibJ8a83vaI0rzTOZ7H-3" value="s" style="ellipse;whiteSpace=wrap;html=1;aspect=fixed;fontSize=18;fontStyle=1" vertex="1" parent="1">
          <mxGeometry x="105" y="50" width="50" height="50" as="geometry" />
        </mxCell>
        <mxCell id="ugibJ8a83vaI0rzTOZ7H-5" value="i" style="ellipse;whiteSpace=wrap;html=1;aspect=fixed;fontSize=18;fontStyle=1" vertex="1" parent="1">
          <mxGeometry x="185" y="50" width="50" height="50" as="geometry" />
        </mxCell>
        <mxCell id="ugibJ8a83vaI0rzTOZ7H-6" value="n" style="ellipse;whiteSpace=wrap;html=1;aspect=fixed;fontSize=18;fontStyle=1" vertex="1" parent="1">
          <mxGeometry x="265" y="50" width="50" height="50" as="geometry" />
        </mxCell>
        <mxCell id="ugibJ8a83vaI0rzTOZ7H-250" style="edgeStyle=orthogonalEdgeStyle;rounded=0;orthogonalLoop=1;jettySize=auto;html=1;entryX=0.5;entryY=0;entryDx=0;entryDy=0;fontSize=18;" edge="1" parent="1" source="ugibJ8a83vaI0rzTOZ7H-8" target="ugibJ8a83vaI0rzTOZ7H-249">
          <mxGeometry relative="1" as="geometry">
            <mxPoint x="455" y="810.0000000000002" as="targetPoint" />
            <Array as="points">
              <mxPoint x="370" y="800" />
              <mxPoint x="450" y="800" />
            </Array>
          </mxGeometry>
        </mxCell>
        <mxCell id="ugibJ8a83vaI0rzTOZ7H-8" value="(" style="ellipse;whiteSpace=wrap;html=1;aspect=fixed;fontSize=18;fontStyle=1" vertex="1" parent="1">
          <mxGeometry x="345" y="50" width="50" height="50" as="geometry" />
        </mxCell>
        <mxCell id="ugibJ8a83vaI0rzTOZ7H-243" style="edgeStyle=orthogonalEdgeStyle;rounded=0;orthogonalLoop=1;jettySize=auto;html=1;entryX=0.5;entryY=0;entryDx=0;entryDy=0;fontSize=18;" edge="1" parent="1" source="ugibJ8a83vaI0rzTOZ7H-10" target="ugibJ8a83vaI0rzTOZ7H-242">
          <mxGeometry relative="1" as="geometry" />
        </mxCell>
        <mxCell id="ugibJ8a83vaI0rzTOZ7H-10" value="-" style="ellipse;whiteSpace=wrap;html=1;aspect=fixed;fontSize=18;fontStyle=1" vertex="1" parent="1">
          <mxGeometry x="425" y="50" width="50" height="50" as="geometry" />
        </mxCell>
        <mxCell id="ugibJ8a83vaI0rzTOZ7H-12" value="1" style="ellipse;whiteSpace=wrap;html=1;aspect=fixed;fontSize=18;fontStyle=1" vertex="1" parent="1">
          <mxGeometry x="505" y="50" width="50" height="50" as="geometry" />
        </mxCell>
        <mxCell id="ugibJ8a83vaI0rzTOZ7H-13" value="." style="ellipse;whiteSpace=wrap;html=1;aspect=fixed;fontSize=18;fontStyle=1" vertex="1" parent="1">
          <mxGeometry x="585" y="50" width="50" height="50" as="geometry" />
        </mxCell>
        <mxCell id="ugibJ8a83vaI0rzTOZ7H-14" style="edgeStyle=orthogonalEdgeStyle;rounded=0;orthogonalLoop=1;jettySize=auto;html=1;entryX=0.5;entryY=0;entryDx=0;entryDy=0;fontFamily=Verdana;fontSize=18;" edge="1" parent="1" target="ugibJ8a83vaI0rzTOZ7H-70">
          <mxGeometry relative="1" as="geometry">
            <mxPoint x="210" y="100" as="sourcePoint" />
          </mxGeometry>
        </mxCell>
        <mxCell id="ugibJ8a83vaI0rzTOZ7H-15" value="1" style="ellipse;whiteSpace=wrap;html=1;aspect=fixed;fontSize=18;fontStyle=1" vertex="1" parent="1">
          <mxGeometry x="665" y="50" width="50" height="50" as="geometry" />
        </mxCell>
        <mxCell id="ugibJ8a83vaI0rzTOZ7H-16" style="edgeStyle=orthogonalEdgeStyle;rounded=0;orthogonalLoop=1;jettySize=auto;html=1;fontFamily=Verdana;fontSize=18;" edge="1" parent="1" target="ugibJ8a83vaI0rzTOZ7H-71">
          <mxGeometry relative="1" as="geometry">
            <mxPoint x="290" y="100" as="sourcePoint" />
          </mxGeometry>
        </mxCell>
        <mxCell id="ugibJ8a83vaI0rzTOZ7H-17" value="3" style="ellipse;whiteSpace=wrap;html=1;aspect=fixed;fontSize=18;fontStyle=1" vertex="1" parent="1">
          <mxGeometry x="745" y="50" width="50" height="50" as="geometry" />
        </mxCell>
        <mxCell id="ugibJ8a83vaI0rzTOZ7H-252" style="edgeStyle=orthogonalEdgeStyle;rounded=0;orthogonalLoop=1;jettySize=auto;html=1;entryX=0.5;entryY=0;entryDx=0;entryDy=0;fontSize=18;" edge="1" parent="1" source="ugibJ8a83vaI0rzTOZ7H-19" target="ugibJ8a83vaI0rzTOZ7H-249">
          <mxGeometry relative="1" as="geometry">
            <Array as="points">
              <mxPoint x="850" y="800" />
              <mxPoint x="450" y="800" />
            </Array>
          </mxGeometry>
        </mxCell>
        <mxCell id="ugibJ8a83vaI0rzTOZ7H-19" value=")" style="ellipse;whiteSpace=wrap;html=1;aspect=fixed;fontSize=18;fontStyle=1" vertex="1" parent="1">
          <mxGeometry x="825" y="50" width="50" height="50" as="geometry" />
        </mxCell>
        <mxCell id="ugibJ8a83vaI0rzTOZ7H-28" value="(" style="ellipse;whiteSpace=wrap;html=1;aspect=fixed;fontSize=18;fontStyle=1" vertex="1" parent="1">
          <mxGeometry x="25" y="50" width="50" height="50" as="geometry" />
        </mxCell>
        <mxCell id="ugibJ8a83vaI0rzTOZ7H-64" style="edgeStyle=orthogonalEdgeStyle;rounded=0;orthogonalLoop=1;jettySize=auto;html=1;fontFamily=Verdana;fontSize=18;" edge="1" parent="1" source="ugibJ8a83vaI0rzTOZ7H-65" target="ugibJ8a83vaI0rzTOZ7H-69">
          <mxGeometry relative="1" as="geometry" />
        </mxCell>
        <mxCell id="ugibJ8a83vaI0rzTOZ7H-65" value="L" style="ellipse;whiteSpace=wrap;html=1;aspect=fixed;fontSize=18;fontStyle=1" vertex="1" parent="1">
          <mxGeometry x="105" y="140" width="50" height="50" as="geometry" />
        </mxCell>
        <mxCell id="ugibJ8a83vaI0rzTOZ7H-66" style="edgeStyle=orthogonalEdgeStyle;rounded=0;orthogonalLoop=1;jettySize=auto;html=1;fontFamily=Verdana;fontSize=18;exitX=0.5;exitY=1;exitDx=0;exitDy=0;entryX=0.5;entryY=0;entryDx=0;entryDy=0;" edge="1" parent="1" target="ugibJ8a83vaI0rzTOZ7H-65">
          <mxGeometry relative="1" as="geometry">
            <mxPoint x="59.99999999999977" y="150" as="targetPoint" />
            <mxPoint x="130.00000000000045" y="100" as="sourcePoint" />
          </mxGeometry>
        </mxCell>
        <mxCell id="ugibJ8a83vaI0rzTOZ7H-67" value="29" style="text;html=1;align=center;verticalAlign=middle;resizable=0;points=[];autosize=1;strokeColor=none;fillColor=none;fontSize=18;fontFamily=Verdana;" vertex="1" parent="1">
          <mxGeometry x="120" y="105" width="50" height="40" as="geometry" />
        </mxCell>
        <mxCell id="ugibJ8a83vaI0rzTOZ7H-69" value="V" style="ellipse;whiteSpace=wrap;html=1;aspect=fixed;fontSize=18;fontStyle=1" vertex="1" parent="1">
          <mxGeometry x="105" y="220" width="50" height="50" as="geometry" />
        </mxCell>
        <mxCell id="ugibJ8a83vaI0rzTOZ7H-70" value="L" style="ellipse;whiteSpace=wrap;html=1;aspect=fixed;fontSize=18;fontStyle=1" vertex="1" parent="1">
          <mxGeometry x="185" y="140" width="50" height="50" as="geometry" />
        </mxCell>
        <mxCell id="ugibJ8a83vaI0rzTOZ7H-71" value="L" style="ellipse;whiteSpace=wrap;html=1;aspect=fixed;fontSize=18;fontStyle=1" vertex="1" parent="1">
          <mxGeometry x="265" y="140" width="50" height="50" as="geometry" />
        </mxCell>
        <mxCell id="ugibJ8a83vaI0rzTOZ7H-72" value="V" style="ellipse;whiteSpace=wrap;html=1;aspect=fixed;fontSize=18;fontStyle=1" vertex="1" parent="1">
          <mxGeometry x="155" y="290" width="50" height="50" as="geometry" />
        </mxCell>
        <mxCell id="ugibJ8a83vaI0rzTOZ7H-73" value="" style="endArrow=classic;html=1;rounded=0;fontFamily=Verdana;fontSize=18;exitX=0.5;exitY=1;exitDx=0;exitDy=0;entryX=0.407;entryY=-0.007;entryDx=0;entryDy=0;entryPerimeter=0;" edge="1" parent="1" source="ugibJ8a83vaI0rzTOZ7H-69" target="ugibJ8a83vaI0rzTOZ7H-72">
          <mxGeometry width="50" height="50" relative="1" as="geometry">
            <mxPoint x="185" y="290" as="sourcePoint" />
            <mxPoint x="235" y="240" as="targetPoint" />
          </mxGeometry>
        </mxCell>
        <mxCell id="ugibJ8a83vaI0rzTOZ7H-74" value="" style="endArrow=classic;html=1;rounded=0;fontFamily=Verdana;fontSize=18;entryX=0.5;entryY=0;entryDx=0;entryDy=0;" edge="1" parent="1" source="ugibJ8a83vaI0rzTOZ7H-70" target="ugibJ8a83vaI0rzTOZ7H-72">
          <mxGeometry width="50" height="50" relative="1" as="geometry">
            <mxPoint x="140" y="280" as="sourcePoint" />
            <mxPoint x="185" y="300" as="targetPoint" />
          </mxGeometry>
        </mxCell>
        <mxCell id="ugibJ8a83vaI0rzTOZ7H-253" style="edgeStyle=orthogonalEdgeStyle;rounded=0;orthogonalLoop=1;jettySize=auto;html=1;entryX=0.5;entryY=0;entryDx=0;entryDy=0;fontSize=18;" edge="1" parent="1" source="ugibJ8a83vaI0rzTOZ7H-76" target="ugibJ8a83vaI0rzTOZ7H-249">
          <mxGeometry relative="1" as="geometry">
            <mxPoint x="485" y="820" as="targetPoint" />
            <Array as="points">
              <mxPoint x="250" y="800" />
              <mxPoint x="450" y="800" />
            </Array>
          </mxGeometry>
        </mxCell>
        <mxCell id="ugibJ8a83vaI0rzTOZ7H-76" value="V" style="ellipse;whiteSpace=wrap;html=1;aspect=fixed;fontSize=18;fontStyle=1" vertex="1" parent="1">
          <mxGeometry x="225" y="350" width="50" height="50" as="geometry" />
        </mxCell>
        <mxCell id="ugibJ8a83vaI0rzTOZ7H-77" value="" style="endArrow=classic;html=1;rounded=0;fontFamily=Verdana;fontSize=18;entryX=0.407;entryY=-0.007;entryDx=0;entryDy=0;entryPerimeter=0;exitX=1;exitY=1;exitDx=0;exitDy=0;" edge="1" parent="1" source="ugibJ8a83vaI0rzTOZ7H-72" target="ugibJ8a83vaI0rzTOZ7H-76">
          <mxGeometry width="50" height="50" relative="1" as="geometry">
            <mxPoint x="235" y="311" as="sourcePoint" />
            <mxPoint x="340" y="281" as="targetPoint" />
          </mxGeometry>
        </mxCell>
        <mxCell id="ugibJ8a83vaI0rzTOZ7H-78" value="" style="endArrow=classic;html=1;rounded=0;fontFamily=Verdana;fontSize=18;entryX=0.5;entryY=0;entryDx=0;entryDy=0;exitX=0.5;exitY=1;exitDx=0;exitDy=0;" edge="1" parent="1" source="ugibJ8a83vaI0rzTOZ7H-71" target="ugibJ8a83vaI0rzTOZ7H-76">
          <mxGeometry width="50" height="50" relative="1" as="geometry">
            <mxPoint x="295" y="200" as="sourcePoint" />
            <mxPoint x="290" y="341" as="targetPoint" />
          </mxGeometry>
        </mxCell>
        <mxCell id="ugibJ8a83vaI0rzTOZ7H-79" value="29" style="text;html=1;align=center;verticalAlign=middle;resizable=0;points=[];autosize=1;strokeColor=none;fillColor=none;fontSize=18;fontFamily=Verdana;" vertex="1" parent="1">
          <mxGeometry x="200" y="105" width="50" height="40" as="geometry" />
        </mxCell>
        <mxCell id="ugibJ8a83vaI0rzTOZ7H-80" value="29" style="text;html=1;align=center;verticalAlign=middle;resizable=0;points=[];autosize=1;strokeColor=none;fillColor=none;fontSize=18;fontFamily=Verdana;" vertex="1" parent="1">
          <mxGeometry x="280" y="105" width="50" height="40" as="geometry" />
        </mxCell>
        <mxCell id="ugibJ8a83vaI0rzTOZ7H-81" value="16" style="text;html=1;align=center;verticalAlign=middle;resizable=0;points=[];autosize=1;strokeColor=none;fillColor=none;fontSize=18;fontFamily=Verdana;" vertex="1" parent="1">
          <mxGeometry x="120" y="185" width="50" height="40" as="geometry" />
        </mxCell>
        <mxCell id="ugibJ8a83vaI0rzTOZ7H-82" value="17" style="text;html=1;align=center;verticalAlign=middle;resizable=0;points=[];autosize=1;strokeColor=none;fillColor=none;fontSize=18;fontFamily=Verdana;" vertex="1" parent="1">
          <mxGeometry x="140" y="245" width="50" height="40" as="geometry" />
        </mxCell>
        <mxCell id="ugibJ8a83vaI0rzTOZ7H-83" value="17" style="text;html=1;align=center;verticalAlign=middle;resizable=0;points=[];autosize=1;strokeColor=none;fillColor=none;fontSize=18;fontFamily=Verdana;" vertex="1" parent="1">
          <mxGeometry x="200" y="305" width="50" height="40" as="geometry" />
        </mxCell>
        <mxCell id="ugibJ8a83vaI0rzTOZ7H-199" style="edgeStyle=orthogonalEdgeStyle;rounded=0;orthogonalLoop=1;jettySize=auto;html=1;entryX=0.5;entryY=0;entryDx=0;entryDy=0;fontFamily=Verdana;fontSize=18;exitX=0.5;exitY=1;exitDx=0;exitDy=0;" edge="1" parent="1" source="ugibJ8a83vaI0rzTOZ7H-12" target="ugibJ8a83vaI0rzTOZ7H-204">
          <mxGeometry relative="1" as="geometry">
            <mxPoint x="570" y="215" as="sourcePoint" />
          </mxGeometry>
        </mxCell>
        <mxCell id="ugibJ8a83vaI0rzTOZ7H-200" style="edgeStyle=orthogonalEdgeStyle;rounded=0;orthogonalLoop=1;jettySize=auto;html=1;entryX=0.5;entryY=0;entryDx=0;entryDy=0;fontFamily=Verdana;fontSize=18;exitX=0.5;exitY=1;exitDx=0;exitDy=0;" edge="1" parent="1" source="ugibJ8a83vaI0rzTOZ7H-15" target="ugibJ8a83vaI0rzTOZ7H-216">
          <mxGeometry relative="1" as="geometry">
            <mxPoint x="690" y="130" as="sourcePoint" />
          </mxGeometry>
        </mxCell>
        <mxCell id="ugibJ8a83vaI0rzTOZ7H-201" style="edgeStyle=orthogonalEdgeStyle;rounded=0;orthogonalLoop=1;jettySize=auto;html=1;entryX=0.5;entryY=0;entryDx=0;entryDy=0;fontFamily=Verdana;fontSize=18;exitX=0.5;exitY=1;exitDx=0;exitDy=0;" edge="1" parent="1" source="ugibJ8a83vaI0rzTOZ7H-17" target="ugibJ8a83vaI0rzTOZ7H-217">
          <mxGeometry relative="1" as="geometry">
            <mxPoint x="770" y="130" as="sourcePoint" />
          </mxGeometry>
        </mxCell>
        <mxCell id="ugibJ8a83vaI0rzTOZ7H-204" value="D" style="ellipse;whiteSpace=wrap;html=1;aspect=fixed;fontSize=18;fontStyle=1" vertex="1" parent="1">
          <mxGeometry x="505" y="140" width="50" height="50" as="geometry" />
        </mxCell>
        <mxCell id="ugibJ8a83vaI0rzTOZ7H-206" value="I" style="ellipse;whiteSpace=wrap;html=1;aspect=fixed;fontSize=18;fontStyle=1" vertex="1" parent="1">
          <mxGeometry x="505" y="240" width="50" height="50" as="geometry" />
        </mxCell>
        <mxCell id="ugibJ8a83vaI0rzTOZ7H-207" value="" style="endArrow=classic;html=1;rounded=0;fontFamily=Verdana;fontSize=18;exitX=0.5;exitY=1;exitDx=0;exitDy=0;entryX=0.5;entryY=0;entryDx=0;entryDy=0;" edge="1" parent="1" source="ugibJ8a83vaI0rzTOZ7H-204" target="ugibJ8a83vaI0rzTOZ7H-206">
          <mxGeometry width="50" height="50" relative="1" as="geometry">
            <mxPoint x="435" y="405" as="sourcePoint" />
            <mxPoint x="485" y="355" as="targetPoint" />
          </mxGeometry>
        </mxCell>
        <mxCell id="ugibJ8a83vaI0rzTOZ7H-210" value="&lt;font style=&quot;font-size: 18px;&quot;&gt;30&lt;/font&gt;" style="text;html=1;align=center;verticalAlign=middle;resizable=0;points=[];autosize=1;strokeColor=none;fillColor=none;fontSize=18;fontFamily=Verdana;" vertex="1" parent="1">
          <mxGeometry x="520" y="105" width="50" height="40" as="geometry" />
        </mxCell>
        <mxCell id="ugibJ8a83vaI0rzTOZ7H-212" value="&lt;font style=&quot;font-size: 18px;&quot;&gt;23&lt;/font&gt;" style="text;html=1;align=center;verticalAlign=middle;resizable=0;points=[];autosize=1;strokeColor=none;fillColor=none;fontSize=18;fontFamily=Verdana;" vertex="1" parent="1">
          <mxGeometry x="530" y="205" width="50" height="40" as="geometry" />
        </mxCell>
        <mxCell id="ugibJ8a83vaI0rzTOZ7H-213" value="" style="endArrow=classic;html=1;rounded=0;fontFamily=Verdana;fontSize=18;entryX=0.5;entryY=0;entryDx=0;entryDy=0;exitX=0.5;exitY=1;exitDx=0;exitDy=0;" edge="1" parent="1" source="ugibJ8a83vaI0rzTOZ7H-206" target="ugibJ8a83vaI0rzTOZ7H-225">
          <mxGeometry width="50" height="50" relative="1" as="geometry">
            <mxPoint x="500" y="385" as="sourcePoint" />
            <mxPoint x="600" y="484.9999999999998" as="targetPoint" />
          </mxGeometry>
        </mxCell>
        <mxCell id="ugibJ8a83vaI0rzTOZ7H-214" value="" style="endArrow=classic;html=1;rounded=0;fontFamily=Verdana;fontSize=18;exitX=0.5;exitY=1;exitDx=0;exitDy=0;entryX=0.5;entryY=0;entryDx=0;entryDy=0;" edge="1" parent="1" source="ugibJ8a83vaI0rzTOZ7H-13" target="ugibJ8a83vaI0rzTOZ7H-225">
          <mxGeometry width="50" height="50" relative="1" as="geometry">
            <mxPoint x="650" y="215" as="sourcePoint" />
            <mxPoint x="600" y="484.9999999999998" as="targetPoint" />
            <Array as="points" />
          </mxGeometry>
        </mxCell>
        <mxCell id="ugibJ8a83vaI0rzTOZ7H-215" style="edgeStyle=orthogonalEdgeStyle;rounded=0;orthogonalLoop=1;jettySize=auto;html=1;entryX=0.5;entryY=0;entryDx=0;entryDy=0;fontFamily=Verdana;fontSize=18;" edge="1" parent="1" source="ugibJ8a83vaI0rzTOZ7H-216" target="ugibJ8a83vaI0rzTOZ7H-218">
          <mxGeometry relative="1" as="geometry" />
        </mxCell>
        <mxCell id="ugibJ8a83vaI0rzTOZ7H-216" value="D" style="ellipse;whiteSpace=wrap;html=1;aspect=fixed;fontSize=18;fontStyle=1" vertex="1" parent="1">
          <mxGeometry x="665" y="140" width="50" height="50" as="geometry" />
        </mxCell>
        <mxCell id="ugibJ8a83vaI0rzTOZ7H-217" value="D" style="ellipse;whiteSpace=wrap;html=1;aspect=fixed;fontSize=18;fontStyle=1" vertex="1" parent="1">
          <mxGeometry x="745" y="140" width="50" height="50" as="geometry" />
        </mxCell>
        <mxCell id="ugibJ8a83vaI0rzTOZ7H-218" value="I" style="ellipse;whiteSpace=wrap;html=1;aspect=fixed;fontSize=18;fontStyle=1" vertex="1" parent="1">
          <mxGeometry x="665" y="230" width="50" height="50" as="geometry" />
        </mxCell>
        <mxCell id="ugibJ8a83vaI0rzTOZ7H-219" value="I" style="ellipse;whiteSpace=wrap;html=1;aspect=fixed;fontSize=18;fontStyle=1" vertex="1" parent="1">
          <mxGeometry x="705" y="320" width="50" height="50" as="geometry" />
        </mxCell>
        <mxCell id="ugibJ8a83vaI0rzTOZ7H-220" value="" style="endArrow=classic;html=1;rounded=0;fontFamily=Verdana;fontSize=18;exitX=0.5;exitY=1;exitDx=0;exitDy=0;entryX=0.5;entryY=0;entryDx=0;entryDy=0;" edge="1" parent="1" source="ugibJ8a83vaI0rzTOZ7H-217" target="ugibJ8a83vaI0rzTOZ7H-219">
          <mxGeometry width="50" height="50" relative="1" as="geometry">
            <mxPoint x="635" y="320" as="sourcePoint" />
            <mxPoint x="700.0000000000002" y="330" as="targetPoint" />
          </mxGeometry>
        </mxCell>
        <mxCell id="ugibJ8a83vaI0rzTOZ7H-221" value="" style="endArrow=classic;html=1;rounded=0;fontFamily=Verdana;fontSize=18;entryX=0.5;entryY=0;entryDx=0;entryDy=0;exitX=0.5;exitY=1;exitDx=0;exitDy=0;" edge="1" parent="1" source="ugibJ8a83vaI0rzTOZ7H-218" target="ugibJ8a83vaI0rzTOZ7H-219">
          <mxGeometry width="50" height="50" relative="1" as="geometry">
            <mxPoint x="635" y="320" as="sourcePoint" />
            <mxPoint x="700.0000000000002" y="330" as="targetPoint" />
          </mxGeometry>
        </mxCell>
        <mxCell id="ugibJ8a83vaI0rzTOZ7H-222" value="&lt;font style=&quot;font-size: 18px;&quot;&gt;23&lt;/font&gt;" style="text;html=1;align=center;verticalAlign=middle;resizable=0;points=[];autosize=1;strokeColor=none;fillColor=none;fontSize=18;fontFamily=Verdana;" vertex="1" parent="1">
          <mxGeometry x="640" y="200" width="50" height="40" as="geometry" />
        </mxCell>
        <mxCell id="ugibJ8a83vaI0rzTOZ7H-223" value="&lt;font style=&quot;font-size: 18px;&quot;&gt;24&lt;/font&gt;" style="text;html=1;align=center;verticalAlign=middle;resizable=0;points=[];autosize=1;strokeColor=none;fillColor=none;fontSize=18;fontFamily=Verdana;" vertex="1" parent="1">
          <mxGeometry x="730" y="285" width="50" height="40" as="geometry" />
        </mxCell>
        <mxCell id="ugibJ8a83vaI0rzTOZ7H-224" style="edgeStyle=orthogonalEdgeStyle;rounded=0;orthogonalLoop=1;jettySize=auto;html=1;entryX=0.5;entryY=0;entryDx=0;entryDy=0;fontFamily=Verdana;fontSize=18;" edge="1" parent="1" source="ugibJ8a83vaI0rzTOZ7H-225" target="ugibJ8a83vaI0rzTOZ7H-228">
          <mxGeometry relative="1" as="geometry" />
        </mxCell>
        <mxCell id="ugibJ8a83vaI0rzTOZ7H-225" value="R" style="ellipse;whiteSpace=wrap;html=1;aspect=fixed;fontSize=18;fontStyle=1" vertex="1" parent="1">
          <mxGeometry x="580" y="395" width="50" height="50" as="geometry" />
        </mxCell>
        <mxCell id="ugibJ8a83vaI0rzTOZ7H-226" value="" style="endArrow=classic;html=1;rounded=0;fontFamily=Verdana;fontSize=18;entryX=0.5;entryY=0;entryDx=0;entryDy=0;exitX=0.5;exitY=1;exitDx=0;exitDy=0;" edge="1" parent="1" source="ugibJ8a83vaI0rzTOZ7H-219" target="ugibJ8a83vaI0rzTOZ7H-225">
          <mxGeometry width="50" height="50" relative="1" as="geometry">
            <mxPoint x="719.9999999999998" y="455" as="sourcePoint" />
            <mxPoint x="730" y="415" as="targetPoint" />
          </mxGeometry>
        </mxCell>
        <mxCell id="ugibJ8a83vaI0rzTOZ7H-227" style="edgeStyle=orthogonalEdgeStyle;rounded=0;orthogonalLoop=1;jettySize=auto;html=1;fontFamily=Verdana;fontSize=18;" edge="1" parent="1" source="ugibJ8a83vaI0rzTOZ7H-228" target="ugibJ8a83vaI0rzTOZ7H-230">
          <mxGeometry relative="1" as="geometry" />
        </mxCell>
        <mxCell id="ugibJ8a83vaI0rzTOZ7H-228" value="H" style="ellipse;whiteSpace=wrap;html=1;aspect=fixed;fontSize=18;fontStyle=1" vertex="1" parent="1">
          <mxGeometry x="580" y="465" width="50" height="50" as="geometry" />
        </mxCell>
        <mxCell id="ugibJ8a83vaI0rzTOZ7H-229" style="edgeStyle=orthogonalEdgeStyle;rounded=0;orthogonalLoop=1;jettySize=auto;html=1;entryX=0.5;entryY=0;entryDx=0;entryDy=0;fontFamily=Verdana;fontSize=18;" edge="1" parent="1" source="ugibJ8a83vaI0rzTOZ7H-230" target="ugibJ8a83vaI0rzTOZ7H-232">
          <mxGeometry relative="1" as="geometry" />
        </mxCell>
        <mxCell id="ugibJ8a83vaI0rzTOZ7H-230" value="U" style="ellipse;whiteSpace=wrap;html=1;aspect=fixed;fontSize=18;fontStyle=1" vertex="1" parent="1">
          <mxGeometry x="580" y="535" width="50" height="50" as="geometry" />
        </mxCell>
        <mxCell id="ugibJ8a83vaI0rzTOZ7H-244" style="edgeStyle=orthogonalEdgeStyle;rounded=0;orthogonalLoop=1;jettySize=auto;html=1;entryX=0.5;entryY=0;entryDx=0;entryDy=0;fontSize=18;" edge="1" parent="1" source="ugibJ8a83vaI0rzTOZ7H-232" target="ugibJ8a83vaI0rzTOZ7H-242">
          <mxGeometry relative="1" as="geometry" />
        </mxCell>
        <mxCell id="ugibJ8a83vaI0rzTOZ7H-232" value="T" style="ellipse;whiteSpace=wrap;html=1;aspect=fixed;fontSize=18;fontStyle=1" vertex="1" parent="1">
          <mxGeometry x="580" y="605" width="50" height="50" as="geometry" />
        </mxCell>
        <mxCell id="ugibJ8a83vaI0rzTOZ7H-234" value="&lt;font style=&quot;font-size: 18px;&quot;&gt;30&lt;/font&gt;" style="text;html=1;align=center;verticalAlign=middle;resizable=0;points=[];autosize=1;strokeColor=none;fillColor=none;fontSize=18;fontFamily=Verdana;" vertex="1" parent="1">
          <mxGeometry x="640" y="105" width="50" height="40" as="geometry" />
        </mxCell>
        <mxCell id="ugibJ8a83vaI0rzTOZ7H-235" value="&lt;font style=&quot;font-size: 18px;&quot;&gt;30&lt;/font&gt;" style="text;html=1;align=center;verticalAlign=middle;resizable=0;points=[];autosize=1;strokeColor=none;fillColor=none;fontSize=18;fontFamily=Verdana;" vertex="1" parent="1">
          <mxGeometry x="720" y="105" width="50" height="40" as="geometry" />
        </mxCell>
        <mxCell id="ugibJ8a83vaI0rzTOZ7H-236" value="22" style="text;html=1;align=center;verticalAlign=middle;resizable=0;points=[];autosize=1;strokeColor=none;fillColor=none;fontSize=18;fontFamily=Verdana;" vertex="1" parent="1">
          <mxGeometry x="595" y="355" width="50" height="40" as="geometry" />
        </mxCell>
        <mxCell id="ugibJ8a83vaI0rzTOZ7H-237" value="13" style="text;html=1;align=center;verticalAlign=middle;resizable=0;points=[];autosize=1;strokeColor=none;fillColor=none;fontSize=18;fontFamily=Verdana;" vertex="1" parent="1">
          <mxGeometry x="595" y="430" width="50" height="40" as="geometry" />
        </mxCell>
        <mxCell id="ugibJ8a83vaI0rzTOZ7H-238" value="9" style="text;html=1;align=center;verticalAlign=middle;resizable=0;points=[];autosize=1;strokeColor=none;fillColor=none;fontSize=18;fontFamily=Verdana;" vertex="1" parent="1">
          <mxGeometry x="610" y="500" width="30" height="40" as="geometry" />
        </mxCell>
        <mxCell id="ugibJ8a83vaI0rzTOZ7H-239" value="7" style="text;html=1;align=center;verticalAlign=middle;resizable=0;points=[];autosize=1;strokeColor=none;fillColor=none;fontSize=18;fontFamily=Verdana;" vertex="1" parent="1">
          <mxGeometry x="610" y="580" width="30" height="40" as="geometry" />
        </mxCell>
        <mxCell id="ugibJ8a83vaI0rzTOZ7H-248" style="edgeStyle=orthogonalEdgeStyle;rounded=0;orthogonalLoop=1;jettySize=auto;html=1;entryX=0.5;entryY=0;entryDx=0;entryDy=0;fontSize=18;" edge="1" parent="1" source="ugibJ8a83vaI0rzTOZ7H-242" target="ugibJ8a83vaI0rzTOZ7H-246">
          <mxGeometry relative="1" as="geometry" />
        </mxCell>
        <mxCell id="ugibJ8a83vaI0rzTOZ7H-242" value="A" style="ellipse;whiteSpace=wrap;html=1;aspect=fixed;fontSize=18;fontStyle=1" vertex="1" parent="1">
          <mxGeometry x="425" y="655" width="50" height="50" as="geometry" />
        </mxCell>
        <mxCell id="ugibJ8a83vaI0rzTOZ7H-245" value="5" style="text;html=1;align=center;verticalAlign=middle;resizable=0;points=[];autosize=1;strokeColor=none;fillColor=none;fontSize=18;" vertex="1" parent="1">
          <mxGeometry x="445" y="595" width="30" height="40" as="geometry" />
        </mxCell>
        <mxCell id="ugibJ8a83vaI0rzTOZ7H-251" style="edgeStyle=orthogonalEdgeStyle;rounded=0;orthogonalLoop=1;jettySize=auto;html=1;entryX=0.5;entryY=0;entryDx=0;entryDy=0;fontSize=18;" edge="1" parent="1" source="ugibJ8a83vaI0rzTOZ7H-246" target="ugibJ8a83vaI0rzTOZ7H-249">
          <mxGeometry relative="1" as="geometry" />
        </mxCell>
        <mxCell id="ugibJ8a83vaI0rzTOZ7H-246" value="B" style="ellipse;whiteSpace=wrap;html=1;aspect=fixed;fontSize=18;fontStyle=1" vertex="1" parent="1">
          <mxGeometry x="425" y="730" width="50" height="50" as="geometry" />
        </mxCell>
        <mxCell id="ugibJ8a83vaI0rzTOZ7H-247" value="2" style="text;html=1;align=center;verticalAlign=middle;resizable=0;points=[];autosize=1;strokeColor=none;fillColor=none;fontSize=18;" vertex="1" parent="1">
          <mxGeometry x="455" y="700" width="30" height="40" as="geometry" />
        </mxCell>
        <mxCell id="ugibJ8a83vaI0rzTOZ7H-249" value="F" style="ellipse;whiteSpace=wrap;html=1;aspect=fixed;fontSize=18;fontStyle=1" vertex="1" parent="1">
          <mxGeometry x="425" y="830" width="50" height="50" as="geometry" />
        </mxCell>
        <mxCell id="ugibJ8a83vaI0rzTOZ7H-254" value="15" style="text;html=1;align=center;verticalAlign=middle;resizable=0;points=[];autosize=1;strokeColor=none;fillColor=none;fontSize=18;" vertex="1" parent="1">
          <mxGeometry x="415" y="770" width="40" height="40" as="geometry" />
        </mxCell>
        <mxCell id="ugibJ8a83vaI0rzTOZ7H-270" value="+" style="ellipse;whiteSpace=wrap;html=1;aspect=fixed;fontSize=18;fontStyle=1" vertex="1" parent="1">
          <mxGeometry x="190" y="940" width="50" height="50" as="geometry" />
        </mxCell>
        <mxCell id="ugibJ8a83vaI0rzTOZ7H-271" value="c" style="ellipse;whiteSpace=wrap;html=1;aspect=fixed;fontSize=18;fontStyle=1" vertex="1" parent="1">
          <mxGeometry x="270" y="940" width="50" height="50" as="geometry" />
        </mxCell>
        <mxCell id="ugibJ8a83vaI0rzTOZ7H-272" value="o" style="ellipse;whiteSpace=wrap;html=1;aspect=fixed;fontSize=18;fontStyle=1" vertex="1" parent="1">
          <mxGeometry x="350" y="940" width="50" height="50" as="geometry" />
        </mxCell>
        <mxCell id="ugibJ8a83vaI0rzTOZ7H-455" style="edgeStyle=orthogonalEdgeStyle;rounded=0;orthogonalLoop=1;jettySize=auto;html=1;entryX=0.5;entryY=0;entryDx=0;entryDy=0;fontSize=18;" edge="1" parent="1" source="ugibJ8a83vaI0rzTOZ7H-273" target="ugibJ8a83vaI0rzTOZ7H-454">
          <mxGeometry relative="1" as="geometry">
            <Array as="points">
              <mxPoint x="455" y="1760" />
              <mxPoint x="515" y="1760" />
            </Array>
          </mxGeometry>
        </mxCell>
        <mxCell id="ugibJ8a83vaI0rzTOZ7H-273" value="(" style="ellipse;whiteSpace=wrap;html=1;aspect=fixed;fontSize=18;fontStyle=1" vertex="1" parent="1">
          <mxGeometry x="430" y="940" width="50" height="50" as="geometry" />
        </mxCell>
        <mxCell id="ugibJ8a83vaI0rzTOZ7H-274" value="x" style="ellipse;whiteSpace=wrap;html=1;aspect=fixed;fontSize=18;fontStyle=1" vertex="1" parent="1">
          <mxGeometry x="510" y="940" width="50" height="50" as="geometry" />
        </mxCell>
        <mxCell id="ugibJ8a83vaI0rzTOZ7H-403" style="edgeStyle=orthogonalEdgeStyle;rounded=0;orthogonalLoop=1;jettySize=auto;html=1;fontSize=18;" edge="1" parent="1" source="ugibJ8a83vaI0rzTOZ7H-275" target="ugibJ8a83vaI0rzTOZ7H-402">
          <mxGeometry relative="1" as="geometry" />
        </mxCell>
        <mxCell id="ugibJ8a83vaI0rzTOZ7H-275" value="+" style="ellipse;whiteSpace=wrap;html=1;aspect=fixed;fontSize=18;fontStyle=1" vertex="1" parent="1">
          <mxGeometry x="590" y="940" width="50" height="50" as="geometry" />
        </mxCell>
        <mxCell id="ugibJ8a83vaI0rzTOZ7H-276" value="z" style="ellipse;whiteSpace=wrap;html=1;aspect=fixed;fontSize=18;fontStyle=1" vertex="1" parent="1">
          <mxGeometry x="670" y="940" width="50" height="50" as="geometry" />
        </mxCell>
        <mxCell id="ugibJ8a83vaI0rzTOZ7H-277" value="(" style="ellipse;whiteSpace=wrap;html=1;aspect=fixed;fontSize=18;fontStyle=1" vertex="1" parent="1">
          <mxGeometry x="30" y="940" width="50" height="50" as="geometry" />
        </mxCell>
        <mxCell id="ugibJ8a83vaI0rzTOZ7H-450" style="edgeStyle=orthogonalEdgeStyle;rounded=0;orthogonalLoop=1;jettySize=auto;html=1;fontSize=18;" edge="1" parent="1" source="ugibJ8a83vaI0rzTOZ7H-297" target="ugibJ8a83vaI0rzTOZ7H-449">
          <mxGeometry relative="1" as="geometry" />
        </mxCell>
        <mxCell id="ugibJ8a83vaI0rzTOZ7H-297" value="," style="ellipse;whiteSpace=wrap;html=1;aspect=fixed;fontSize=18;fontStyle=1" vertex="1" parent="1">
          <mxGeometry x="750" y="940" width="50" height="50" as="geometry" />
        </mxCell>
        <mxCell id="ugibJ8a83vaI0rzTOZ7H-298" value="4" style="ellipse;whiteSpace=wrap;html=1;aspect=fixed;fontSize=18;fontStyle=1" vertex="1" parent="1">
          <mxGeometry x="830" y="940" width="50" height="50" as="geometry" />
        </mxCell>
        <mxCell id="ugibJ8a83vaI0rzTOZ7H-299" value="5" style="ellipse;whiteSpace=wrap;html=1;aspect=fixed;fontSize=18;fontStyle=1" vertex="1" parent="1">
          <mxGeometry x="910" y="940" width="50" height="50" as="geometry" />
        </mxCell>
        <mxCell id="ugibJ8a83vaI0rzTOZ7H-300" value="6" style="ellipse;whiteSpace=wrap;html=1;aspect=fixed;fontSize=18;fontStyle=1" vertex="1" parent="1">
          <mxGeometry x="990" y="940" width="50" height="50" as="geometry" />
        </mxCell>
        <mxCell id="ugibJ8a83vaI0rzTOZ7H-457" style="edgeStyle=orthogonalEdgeStyle;rounded=0;orthogonalLoop=1;jettySize=auto;html=1;entryX=0.5;entryY=0;entryDx=0;entryDy=0;fontSize=18;" edge="1" parent="1" source="ugibJ8a83vaI0rzTOZ7H-301" target="ugibJ8a83vaI0rzTOZ7H-454">
          <mxGeometry relative="1" as="geometry">
            <Array as="points">
              <mxPoint x="1095" y="1760" />
              <mxPoint x="515" y="1760" />
            </Array>
          </mxGeometry>
        </mxCell>
        <mxCell id="ugibJ8a83vaI0rzTOZ7H-301" value=")" style="ellipse;whiteSpace=wrap;html=1;aspect=fixed;fontSize=18;fontStyle=1" vertex="1" parent="1">
          <mxGeometry x="1070" y="940" width="50" height="50" as="geometry" />
        </mxCell>
        <mxCell id="ugibJ8a83vaI0rzTOZ7H-504" style="edgeStyle=orthogonalEdgeStyle;rounded=0;orthogonalLoop=1;jettySize=auto;html=1;entryX=0.5;entryY=0;entryDx=0;entryDy=0;fontSize=18;" edge="1" parent="1" source="ugibJ8a83vaI0rzTOZ7H-302" target="ugibJ8a83vaI0rzTOZ7H-502">
          <mxGeometry relative="1" as="geometry" />
        </mxCell>
        <mxCell id="ugibJ8a83vaI0rzTOZ7H-302" value="^" style="ellipse;whiteSpace=wrap;html=1;aspect=fixed;fontSize=18;fontStyle=1" vertex="1" parent="1">
          <mxGeometry x="1150" y="940" width="50" height="50" as="geometry" />
        </mxCell>
        <mxCell id="ugibJ8a83vaI0rzTOZ7H-303" value="2" style="ellipse;whiteSpace=wrap;html=1;aspect=fixed;fontSize=18;fontStyle=1" vertex="1" parent="1">
          <mxGeometry x="1230" y="940" width="50" height="50" as="geometry" />
        </mxCell>
        <mxCell id="ugibJ8a83vaI0rzTOZ7H-304" value=")" style="ellipse;whiteSpace=wrap;html=1;aspect=fixed;fontSize=18;fontStyle=1" vertex="1" parent="1">
          <mxGeometry x="1310" y="940" width="50" height="50" as="geometry" />
        </mxCell>
        <mxCell id="ugibJ8a83vaI0rzTOZ7H-305" style="edgeStyle=orthogonalEdgeStyle;rounded=0;orthogonalLoop=1;jettySize=auto;html=1;entryX=0.5;entryY=0;entryDx=0;entryDy=0;fontFamily=Verdana;fontSize=18;" edge="1" parent="1" target="ugibJ8a83vaI0rzTOZ7H-311">
          <mxGeometry relative="1" as="geometry">
            <mxPoint x="375" y="990" as="sourcePoint" />
          </mxGeometry>
        </mxCell>
        <mxCell id="ugibJ8a83vaI0rzTOZ7H-306" style="edgeStyle=orthogonalEdgeStyle;rounded=0;orthogonalLoop=1;jettySize=auto;html=1;fontFamily=Verdana;fontSize=18;" edge="1" parent="1" source="ugibJ8a83vaI0rzTOZ7H-307" target="ugibJ8a83vaI0rzTOZ7H-310">
          <mxGeometry relative="1" as="geometry" />
        </mxCell>
        <mxCell id="ugibJ8a83vaI0rzTOZ7H-307" value="L" style="ellipse;whiteSpace=wrap;html=1;aspect=fixed;fontSize=18;fontStyle=1" vertex="1" parent="1">
          <mxGeometry x="270" y="1030" width="50" height="50" as="geometry" />
        </mxCell>
        <mxCell id="ugibJ8a83vaI0rzTOZ7H-308" style="edgeStyle=orthogonalEdgeStyle;rounded=0;orthogonalLoop=1;jettySize=auto;html=1;fontFamily=Verdana;fontSize=18;exitX=0.5;exitY=1;exitDx=0;exitDy=0;entryX=0.5;entryY=0;entryDx=0;entryDy=0;" edge="1" parent="1" target="ugibJ8a83vaI0rzTOZ7H-307">
          <mxGeometry relative="1" as="geometry">
            <mxPoint x="224.99999999999977" y="1040" as="targetPoint" />
            <mxPoint x="295.00000000000045" y="990" as="sourcePoint" />
          </mxGeometry>
        </mxCell>
        <mxCell id="ugibJ8a83vaI0rzTOZ7H-309" value="29" style="text;html=1;align=center;verticalAlign=middle;resizable=0;points=[];autosize=1;strokeColor=none;fillColor=none;fontSize=18;fontFamily=Verdana;" vertex="1" parent="1">
          <mxGeometry x="285" y="995" width="50" height="40" as="geometry" />
        </mxCell>
        <mxCell id="ugibJ8a83vaI0rzTOZ7H-310" value="V" style="ellipse;whiteSpace=wrap;html=1;aspect=fixed;fontSize=18;fontStyle=1" vertex="1" parent="1">
          <mxGeometry x="270" y="1110" width="50" height="50" as="geometry" />
        </mxCell>
        <mxCell id="ugibJ8a83vaI0rzTOZ7H-311" value="L" style="ellipse;whiteSpace=wrap;html=1;aspect=fixed;fontSize=18;fontStyle=1" vertex="1" parent="1">
          <mxGeometry x="350" y="1030" width="50" height="50" as="geometry" />
        </mxCell>
        <mxCell id="ugibJ8a83vaI0rzTOZ7H-458" style="edgeStyle=orthogonalEdgeStyle;rounded=0;orthogonalLoop=1;jettySize=auto;html=1;entryX=0.5;entryY=0;entryDx=0;entryDy=0;fontSize=18;" edge="1" parent="1" source="ugibJ8a83vaI0rzTOZ7H-312" target="ugibJ8a83vaI0rzTOZ7H-454">
          <mxGeometry relative="1" as="geometry">
            <mxPoint x="510" y="1790" as="targetPoint" />
            <Array as="points">
              <mxPoint x="365" y="1760" />
              <mxPoint x="515" y="1760" />
            </Array>
          </mxGeometry>
        </mxCell>
        <mxCell id="ugibJ8a83vaI0rzTOZ7H-312" value="V" style="ellipse;whiteSpace=wrap;html=1;aspect=fixed;fontSize=18;fontStyle=1" vertex="1" parent="1">
          <mxGeometry x="340" y="1220" width="50" height="50" as="geometry" />
        </mxCell>
        <mxCell id="ugibJ8a83vaI0rzTOZ7H-313" value="" style="endArrow=classic;html=1;rounded=0;fontFamily=Verdana;fontSize=18;exitX=0.5;exitY=1;exitDx=0;exitDy=0;entryX=0.407;entryY=-0.007;entryDx=0;entryDy=0;entryPerimeter=0;" edge="1" parent="1" source="ugibJ8a83vaI0rzTOZ7H-310" target="ugibJ8a83vaI0rzTOZ7H-312">
          <mxGeometry width="50" height="50" relative="1" as="geometry">
            <mxPoint x="350" y="1180" as="sourcePoint" />
            <mxPoint x="400" y="1130" as="targetPoint" />
          </mxGeometry>
        </mxCell>
        <mxCell id="ugibJ8a83vaI0rzTOZ7H-314" value="" style="endArrow=classic;html=1;rounded=0;fontFamily=Verdana;fontSize=18;entryX=0.5;entryY=0;entryDx=0;entryDy=0;" edge="1" parent="1" source="ugibJ8a83vaI0rzTOZ7H-311" target="ugibJ8a83vaI0rzTOZ7H-312">
          <mxGeometry width="50" height="50" relative="1" as="geometry">
            <mxPoint x="305" y="1170" as="sourcePoint" />
            <mxPoint x="350" y="1190" as="targetPoint" />
          </mxGeometry>
        </mxCell>
        <mxCell id="ugibJ8a83vaI0rzTOZ7H-315" value="29" style="text;html=1;align=center;verticalAlign=middle;resizable=0;points=[];autosize=1;strokeColor=none;fillColor=none;fontSize=18;fontFamily=Verdana;" vertex="1" parent="1">
          <mxGeometry x="365" y="995" width="50" height="40" as="geometry" />
        </mxCell>
        <mxCell id="ugibJ8a83vaI0rzTOZ7H-316" value="16" style="text;html=1;align=center;verticalAlign=middle;resizable=0;points=[];autosize=1;strokeColor=none;fillColor=none;fontSize=18;fontFamily=Verdana;" vertex="1" parent="1">
          <mxGeometry x="285" y="1075" width="50" height="40" as="geometry" />
        </mxCell>
        <mxCell id="ugibJ8a83vaI0rzTOZ7H-317" value="17" style="text;html=1;align=center;verticalAlign=middle;resizable=0;points=[];autosize=1;strokeColor=none;fillColor=none;fontSize=18;fontFamily=Verdana;" vertex="1" parent="1">
          <mxGeometry x="315" y="1155" width="50" height="40" as="geometry" />
        </mxCell>
        <mxCell id="ugibJ8a83vaI0rzTOZ7H-358" value="F" style="ellipse;whiteSpace=wrap;html=1;aspect=fixed;fontSize=18;fontStyle=1" vertex="1" parent="1">
          <mxGeometry x="110" y="940" width="50" height="50" as="geometry" />
        </mxCell>
        <mxCell id="ugibJ8a83vaI0rzTOZ7H-360" style="edgeStyle=orthogonalEdgeStyle;rounded=0;orthogonalLoop=1;jettySize=auto;html=1;fontFamily=Verdana;fontSize=18;" edge="1" parent="1" target="ugibJ8a83vaI0rzTOZ7H-361">
          <mxGeometry relative="1" as="geometry">
            <mxPoint x="535" y="990" as="sourcePoint" />
          </mxGeometry>
        </mxCell>
        <mxCell id="ugibJ8a83vaI0rzTOZ7H-361" value="L" style="ellipse;whiteSpace=wrap;html=1;aspect=fixed;fontSize=18;fontStyle=1" vertex="1" parent="1">
          <mxGeometry x="510" y="1030" width="50" height="50" as="geometry" />
        </mxCell>
        <mxCell id="ugibJ8a83vaI0rzTOZ7H-362" value="29" style="text;html=1;align=center;verticalAlign=middle;resizable=0;points=[];autosize=1;strokeColor=none;fillColor=none;fontSize=18;fontFamily=Verdana;" vertex="1" parent="1">
          <mxGeometry x="525" y="995" width="50" height="40" as="geometry" />
        </mxCell>
        <mxCell id="ugibJ8a83vaI0rzTOZ7H-363" style="edgeStyle=orthogonalEdgeStyle;rounded=0;orthogonalLoop=1;jettySize=auto;html=1;entryX=0.5;entryY=0;entryDx=0;entryDy=0;fontFamily=Verdana;fontSize=18;" edge="1" parent="1" target="ugibJ8a83vaI0rzTOZ7H-365">
          <mxGeometry relative="1" as="geometry">
            <mxPoint x="535" y="1080" as="sourcePoint" />
          </mxGeometry>
        </mxCell>
        <mxCell id="ugibJ8a83vaI0rzTOZ7H-364" style="edgeStyle=orthogonalEdgeStyle;rounded=0;orthogonalLoop=1;jettySize=auto;html=1;entryX=0.5;entryY=0;entryDx=0;entryDy=0;fontFamily=Verdana;fontSize=18;" edge="1" parent="1" source="ugibJ8a83vaI0rzTOZ7H-365" target="ugibJ8a83vaI0rzTOZ7H-366">
          <mxGeometry relative="1" as="geometry" />
        </mxCell>
        <mxCell id="ugibJ8a83vaI0rzTOZ7H-365" value="V" style="ellipse;whiteSpace=wrap;html=1;aspect=fixed;fontSize=18;fontStyle=1" vertex="1" parent="1">
          <mxGeometry x="510" y="1105" width="50" height="50" as="geometry" />
        </mxCell>
        <mxCell id="ugibJ8a83vaI0rzTOZ7H-366" value="H" style="ellipse;whiteSpace=wrap;html=1;aspect=fixed;fontSize=18;fontStyle=1" vertex="1" parent="1">
          <mxGeometry x="510" y="1180" width="50" height="50" as="geometry" />
        </mxCell>
        <mxCell id="ugibJ8a83vaI0rzTOZ7H-367" value="12" style="text;html=1;align=center;verticalAlign=middle;resizable=0;points=[];autosize=1;strokeColor=none;fillColor=none;fontSize=18;fontFamily=Verdana;" vertex="1" parent="1">
          <mxGeometry x="525" y="1150" width="50" height="40" as="geometry" />
        </mxCell>
        <mxCell id="ugibJ8a83vaI0rzTOZ7H-368" value="16" style="text;html=1;align=center;verticalAlign=middle;resizable=0;points=[];autosize=1;strokeColor=none;fillColor=none;fontSize=18;fontFamily=Verdana;" vertex="1" parent="1">
          <mxGeometry x="525" y="1070" width="50" height="40" as="geometry" />
        </mxCell>
        <mxCell id="ugibJ8a83vaI0rzTOZ7H-369" value="U" style="ellipse;whiteSpace=wrap;html=1;aspect=fixed;fontSize=18;fontStyle=1" vertex="1" parent="1">
          <mxGeometry x="510" y="1255" width="50" height="50" as="geometry" />
        </mxCell>
        <mxCell id="ugibJ8a83vaI0rzTOZ7H-370" style="edgeStyle=orthogonalEdgeStyle;rounded=0;orthogonalLoop=1;jettySize=auto;html=1;entryX=0.5;entryY=0;entryDx=0;entryDy=0;fontFamily=Verdana;fontSize=18;exitX=0.5;exitY=1;exitDx=0;exitDy=0;" edge="1" parent="1" source="ugibJ8a83vaI0rzTOZ7H-366" target="ugibJ8a83vaI0rzTOZ7H-369">
          <mxGeometry relative="1" as="geometry">
            <mxPoint x="535" y="1240" as="sourcePoint" />
            <mxPoint x="535" y="1270" as="targetPoint" />
          </mxGeometry>
        </mxCell>
        <mxCell id="ugibJ8a83vaI0rzTOZ7H-371" value="9" style="text;html=1;align=center;verticalAlign=middle;resizable=0;points=[];autosize=1;strokeColor=none;fillColor=none;fontSize=18;fontFamily=Verdana;" vertex="1" parent="1">
          <mxGeometry x="530" y="1220" width="30" height="40" as="geometry" />
        </mxCell>
        <mxCell id="ugibJ8a83vaI0rzTOZ7H-378" style="edgeStyle=orthogonalEdgeStyle;rounded=0;orthogonalLoop=1;jettySize=auto;html=1;entryX=0.5;entryY=0;entryDx=0;entryDy=0;fontFamily=Verdana;fontSize=18;" edge="1" parent="1" target="ugibJ8a83vaI0rzTOZ7H-379">
          <mxGeometry relative="1" as="geometry">
            <mxPoint x="535" y="1305" as="sourcePoint" />
          </mxGeometry>
        </mxCell>
        <mxCell id="ugibJ8a83vaI0rzTOZ7H-379" value="T" style="ellipse;whiteSpace=wrap;html=1;aspect=fixed;fontSize=18;fontStyle=1" vertex="1" parent="1">
          <mxGeometry x="510" y="1330" width="50" height="50" as="geometry" />
        </mxCell>
        <mxCell id="ugibJ8a83vaI0rzTOZ7H-380" value="7" style="text;html=1;align=center;verticalAlign=middle;resizable=0;points=[];autosize=1;strokeColor=none;fillColor=none;fontSize=18;fontFamily=Verdana;" vertex="1" parent="1">
          <mxGeometry x="535" y="1300" width="30" height="40" as="geometry" />
        </mxCell>
        <mxCell id="ugibJ8a83vaI0rzTOZ7H-408" style="edgeStyle=orthogonalEdgeStyle;rounded=0;orthogonalLoop=1;jettySize=auto;html=1;entryX=0.5;entryY=0;entryDx=0;entryDy=0;fontSize=18;" edge="1" parent="1" source="ugibJ8a83vaI0rzTOZ7H-381" target="ugibJ8a83vaI0rzTOZ7H-406">
          <mxGeometry relative="1" as="geometry">
            <Array as="points">
              <mxPoint x="535" y="1460" />
              <mxPoint x="615" y="1460" />
            </Array>
          </mxGeometry>
        </mxCell>
        <mxCell id="ugibJ8a83vaI0rzTOZ7H-381" value="A" style="ellipse;whiteSpace=wrap;html=1;aspect=fixed;fontSize=18;fontStyle=1" vertex="1" parent="1">
          <mxGeometry x="510" y="1405" width="50" height="50" as="geometry" />
        </mxCell>
        <mxCell id="ugibJ8a83vaI0rzTOZ7H-382" style="edgeStyle=orthogonalEdgeStyle;rounded=0;orthogonalLoop=1;jettySize=auto;html=1;entryX=0.5;entryY=0;entryDx=0;entryDy=0;fontFamily=Verdana;fontSize=18;exitX=0.5;exitY=1;exitDx=0;exitDy=0;" edge="1" parent="1" source="ugibJ8a83vaI0rzTOZ7H-379" target="ugibJ8a83vaI0rzTOZ7H-381">
          <mxGeometry relative="1" as="geometry">
            <mxPoint x="535" y="1390" as="sourcePoint" />
            <mxPoint x="535" y="1420" as="targetPoint" />
          </mxGeometry>
        </mxCell>
        <mxCell id="ugibJ8a83vaI0rzTOZ7H-383" value="4" style="text;html=1;align=center;verticalAlign=middle;resizable=0;points=[];autosize=1;strokeColor=none;fillColor=none;fontSize=18;fontFamily=Verdana;" vertex="1" parent="1">
          <mxGeometry x="530" y="1370" width="30" height="40" as="geometry" />
        </mxCell>
        <mxCell id="ugibJ8a83vaI0rzTOZ7H-384" style="edgeStyle=orthogonalEdgeStyle;rounded=0;orthogonalLoop=1;jettySize=auto;html=1;fontFamily=Verdana;fontSize=18;" edge="1" parent="1" target="ugibJ8a83vaI0rzTOZ7H-385">
          <mxGeometry relative="1" as="geometry">
            <mxPoint x="695" y="990" as="sourcePoint" />
          </mxGeometry>
        </mxCell>
        <mxCell id="ugibJ8a83vaI0rzTOZ7H-385" value="L" style="ellipse;whiteSpace=wrap;html=1;aspect=fixed;fontSize=18;fontStyle=1" vertex="1" parent="1">
          <mxGeometry x="670" y="1030" width="50" height="50" as="geometry" />
        </mxCell>
        <mxCell id="ugibJ8a83vaI0rzTOZ7H-386" value="29" style="text;html=1;align=center;verticalAlign=middle;resizable=0;points=[];autosize=1;strokeColor=none;fillColor=none;fontSize=18;fontFamily=Verdana;" vertex="1" parent="1">
          <mxGeometry x="685" y="995" width="50" height="40" as="geometry" />
        </mxCell>
        <mxCell id="ugibJ8a83vaI0rzTOZ7H-387" style="edgeStyle=orthogonalEdgeStyle;rounded=0;orthogonalLoop=1;jettySize=auto;html=1;entryX=0.5;entryY=0;entryDx=0;entryDy=0;fontFamily=Verdana;fontSize=18;" edge="1" parent="1" target="ugibJ8a83vaI0rzTOZ7H-389">
          <mxGeometry relative="1" as="geometry">
            <mxPoint x="695" y="1080" as="sourcePoint" />
          </mxGeometry>
        </mxCell>
        <mxCell id="ugibJ8a83vaI0rzTOZ7H-388" style="edgeStyle=orthogonalEdgeStyle;rounded=0;orthogonalLoop=1;jettySize=auto;html=1;entryX=0.5;entryY=0;entryDx=0;entryDy=0;fontFamily=Verdana;fontSize=18;" edge="1" parent="1" source="ugibJ8a83vaI0rzTOZ7H-389" target="ugibJ8a83vaI0rzTOZ7H-390">
          <mxGeometry relative="1" as="geometry" />
        </mxCell>
        <mxCell id="ugibJ8a83vaI0rzTOZ7H-389" value="V" style="ellipse;whiteSpace=wrap;html=1;aspect=fixed;fontSize=18;fontStyle=1" vertex="1" parent="1">
          <mxGeometry x="670" y="1105" width="50" height="50" as="geometry" />
        </mxCell>
        <mxCell id="ugibJ8a83vaI0rzTOZ7H-390" value="H" style="ellipse;whiteSpace=wrap;html=1;aspect=fixed;fontSize=18;fontStyle=1" vertex="1" parent="1">
          <mxGeometry x="670" y="1180" width="50" height="50" as="geometry" />
        </mxCell>
        <mxCell id="ugibJ8a83vaI0rzTOZ7H-391" value="12" style="text;html=1;align=center;verticalAlign=middle;resizable=0;points=[];autosize=1;strokeColor=none;fillColor=none;fontSize=18;fontFamily=Verdana;" vertex="1" parent="1">
          <mxGeometry x="685" y="1150" width="50" height="40" as="geometry" />
        </mxCell>
        <mxCell id="ugibJ8a83vaI0rzTOZ7H-392" value="16" style="text;html=1;align=center;verticalAlign=middle;resizable=0;points=[];autosize=1;strokeColor=none;fillColor=none;fontSize=18;fontFamily=Verdana;" vertex="1" parent="1">
          <mxGeometry x="685" y="1070" width="50" height="40" as="geometry" />
        </mxCell>
        <mxCell id="ugibJ8a83vaI0rzTOZ7H-393" value="U" style="ellipse;whiteSpace=wrap;html=1;aspect=fixed;fontSize=18;fontStyle=1" vertex="1" parent="1">
          <mxGeometry x="670" y="1255" width="50" height="50" as="geometry" />
        </mxCell>
        <mxCell id="ugibJ8a83vaI0rzTOZ7H-394" style="edgeStyle=orthogonalEdgeStyle;rounded=0;orthogonalLoop=1;jettySize=auto;html=1;entryX=0.5;entryY=0;entryDx=0;entryDy=0;fontFamily=Verdana;fontSize=18;exitX=0.5;exitY=1;exitDx=0;exitDy=0;" edge="1" parent="1" source="ugibJ8a83vaI0rzTOZ7H-390" target="ugibJ8a83vaI0rzTOZ7H-393">
          <mxGeometry relative="1" as="geometry">
            <mxPoint x="695" y="1240" as="sourcePoint" />
            <mxPoint x="695" y="1270" as="targetPoint" />
          </mxGeometry>
        </mxCell>
        <mxCell id="ugibJ8a83vaI0rzTOZ7H-395" value="9" style="text;html=1;align=center;verticalAlign=middle;resizable=0;points=[];autosize=1;strokeColor=none;fillColor=none;fontSize=18;fontFamily=Verdana;" vertex="1" parent="1">
          <mxGeometry x="690" y="1220" width="30" height="40" as="geometry" />
        </mxCell>
        <mxCell id="ugibJ8a83vaI0rzTOZ7H-396" style="edgeStyle=orthogonalEdgeStyle;rounded=0;orthogonalLoop=1;jettySize=auto;html=1;entryX=0.5;entryY=0;entryDx=0;entryDy=0;fontFamily=Verdana;fontSize=18;" edge="1" parent="1" target="ugibJ8a83vaI0rzTOZ7H-397">
          <mxGeometry relative="1" as="geometry">
            <mxPoint x="695" y="1305" as="sourcePoint" />
          </mxGeometry>
        </mxCell>
        <mxCell id="ugibJ8a83vaI0rzTOZ7H-409" style="edgeStyle=orthogonalEdgeStyle;rounded=0;orthogonalLoop=1;jettySize=auto;html=1;entryX=0.5;entryY=0;entryDx=0;entryDy=0;fontSize=18;" edge="1" parent="1" source="ugibJ8a83vaI0rzTOZ7H-397" target="ugibJ8a83vaI0rzTOZ7H-406">
          <mxGeometry relative="1" as="geometry">
            <Array as="points">
              <mxPoint x="695" y="1460" />
              <mxPoint x="615" y="1460" />
            </Array>
          </mxGeometry>
        </mxCell>
        <mxCell id="ugibJ8a83vaI0rzTOZ7H-397" value="T" style="ellipse;whiteSpace=wrap;html=1;aspect=fixed;fontSize=18;fontStyle=1" vertex="1" parent="1">
          <mxGeometry x="670" y="1330" width="50" height="50" as="geometry" />
        </mxCell>
        <mxCell id="ugibJ8a83vaI0rzTOZ7H-398" value="7" style="text;html=1;align=center;verticalAlign=middle;resizable=0;points=[];autosize=1;strokeColor=none;fillColor=none;fontSize=18;fontFamily=Verdana;" vertex="1" parent="1">
          <mxGeometry x="695" y="1300" width="30" height="40" as="geometry" />
        </mxCell>
        <mxCell id="ugibJ8a83vaI0rzTOZ7H-407" style="edgeStyle=orthogonalEdgeStyle;rounded=0;orthogonalLoop=1;jettySize=auto;html=1;entryX=0.5;entryY=0;entryDx=0;entryDy=0;fontSize=18;" edge="1" parent="1" source="ugibJ8a83vaI0rzTOZ7H-402" target="ugibJ8a83vaI0rzTOZ7H-406">
          <mxGeometry relative="1" as="geometry" />
        </mxCell>
        <mxCell id="ugibJ8a83vaI0rzTOZ7H-402" value="Z" style="ellipse;whiteSpace=wrap;html=1;aspect=fixed;fontSize=18;fontStyle=1" vertex="1" parent="1">
          <mxGeometry x="590" y="1330" width="50" height="50" as="geometry" />
        </mxCell>
        <mxCell id="ugibJ8a83vaI0rzTOZ7H-404" value="25" style="text;html=1;align=center;verticalAlign=middle;resizable=0;points=[];autosize=1;strokeColor=none;fillColor=none;fontSize=18;" vertex="1" parent="1">
          <mxGeometry x="615" y="1295" width="40" height="40" as="geometry" />
        </mxCell>
        <mxCell id="ugibJ8a83vaI0rzTOZ7H-412" style="edgeStyle=orthogonalEdgeStyle;rounded=0;orthogonalLoop=1;jettySize=auto;html=1;entryX=0.5;entryY=0;entryDx=0;entryDy=0;fontSize=18;" edge="1" parent="1" source="ugibJ8a83vaI0rzTOZ7H-406" target="ugibJ8a83vaI0rzTOZ7H-411">
          <mxGeometry relative="1" as="geometry" />
        </mxCell>
        <mxCell id="ugibJ8a83vaI0rzTOZ7H-406" value="A" style="ellipse;whiteSpace=wrap;html=1;aspect=fixed;fontSize=18;fontStyle=1" vertex="1" parent="1">
          <mxGeometry x="590" y="1470" width="50" height="50" as="geometry" />
        </mxCell>
        <mxCell id="ugibJ8a83vaI0rzTOZ7H-410" value="6" style="text;html=1;align=center;verticalAlign=middle;resizable=0;points=[];autosize=1;strokeColor=none;fillColor=none;fontSize=18;" vertex="1" parent="1">
          <mxGeometry x="615" y="1430" width="30" height="40" as="geometry" />
        </mxCell>
        <mxCell id="ugibJ8a83vaI0rzTOZ7H-452" style="edgeStyle=orthogonalEdgeStyle;rounded=0;orthogonalLoop=1;jettySize=auto;html=1;entryX=0.5;entryY=0;entryDx=0;entryDy=0;fontSize=18;" edge="1" parent="1" source="ugibJ8a83vaI0rzTOZ7H-411" target="ugibJ8a83vaI0rzTOZ7H-449">
          <mxGeometry relative="1" as="geometry">
            <Array as="points">
              <mxPoint x="615" y="1630" />
              <mxPoint x="775" y="1630" />
            </Array>
          </mxGeometry>
        </mxCell>
        <mxCell id="ugibJ8a83vaI0rzTOZ7H-411" value="B" style="ellipse;whiteSpace=wrap;html=1;aspect=fixed;fontSize=18;fontStyle=1" vertex="1" parent="1">
          <mxGeometry x="590" y="1550" width="50" height="50" as="geometry" />
        </mxCell>
        <mxCell id="ugibJ8a83vaI0rzTOZ7H-413" value="2" style="text;html=1;align=center;verticalAlign=middle;resizable=0;points=[];autosize=1;strokeColor=none;fillColor=none;fontSize=18;" vertex="1" parent="1">
          <mxGeometry x="615" y="1515" width="30" height="40" as="geometry" />
        </mxCell>
        <mxCell id="ugibJ8a83vaI0rzTOZ7H-414" style="edgeStyle=orthogonalEdgeStyle;rounded=0;orthogonalLoop=1;jettySize=auto;html=1;entryX=0.5;entryY=0;entryDx=0;entryDy=0;fontFamily=Verdana;fontSize=18;" edge="1" parent="1" target="ugibJ8a83vaI0rzTOZ7H-420">
          <mxGeometry relative="1" as="geometry">
            <mxPoint x="935" y="990" as="sourcePoint" />
          </mxGeometry>
        </mxCell>
        <mxCell id="ugibJ8a83vaI0rzTOZ7H-415" style="edgeStyle=orthogonalEdgeStyle;rounded=0;orthogonalLoop=1;jettySize=auto;html=1;fontFamily=Verdana;fontSize=18;" edge="1" parent="1" source="ugibJ8a83vaI0rzTOZ7H-416" target="ugibJ8a83vaI0rzTOZ7H-419">
          <mxGeometry relative="1" as="geometry" />
        </mxCell>
        <mxCell id="ugibJ8a83vaI0rzTOZ7H-416" value="D" style="ellipse;whiteSpace=wrap;html=1;aspect=fixed;fontSize=18;fontStyle=1" vertex="1" parent="1">
          <mxGeometry x="830" y="1030" width="50" height="50" as="geometry" />
        </mxCell>
        <mxCell id="ugibJ8a83vaI0rzTOZ7H-417" style="edgeStyle=orthogonalEdgeStyle;rounded=0;orthogonalLoop=1;jettySize=auto;html=1;fontFamily=Verdana;fontSize=18;exitX=0.5;exitY=1;exitDx=0;exitDy=0;entryX=0.5;entryY=0;entryDx=0;entryDy=0;" edge="1" parent="1" target="ugibJ8a83vaI0rzTOZ7H-416">
          <mxGeometry relative="1" as="geometry">
            <mxPoint x="784.9999999999998" y="1040" as="targetPoint" />
            <mxPoint x="855.0000000000005" y="990" as="sourcePoint" />
          </mxGeometry>
        </mxCell>
        <mxCell id="ugibJ8a83vaI0rzTOZ7H-418" value="30" style="text;html=1;align=center;verticalAlign=middle;resizable=0;points=[];autosize=1;strokeColor=none;fillColor=none;fontSize=18;fontFamily=Verdana;" vertex="1" parent="1">
          <mxGeometry x="845" y="995" width="50" height="40" as="geometry" />
        </mxCell>
        <mxCell id="ugibJ8a83vaI0rzTOZ7H-419" value="I" style="ellipse;whiteSpace=wrap;html=1;aspect=fixed;fontSize=18;fontStyle=1" vertex="1" parent="1">
          <mxGeometry x="830" y="1100" width="50" height="50" as="geometry" />
        </mxCell>
        <mxCell id="ugibJ8a83vaI0rzTOZ7H-420" value="D" style="ellipse;whiteSpace=wrap;html=1;aspect=fixed;fontSize=18;fontStyle=1" vertex="1" parent="1">
          <mxGeometry x="910" y="1030" width="50" height="50" as="geometry" />
        </mxCell>
        <mxCell id="ugibJ8a83vaI0rzTOZ7H-421" value="I" style="ellipse;whiteSpace=wrap;html=1;aspect=fixed;fontSize=18;fontStyle=1" vertex="1" parent="1">
          <mxGeometry x="900" y="1170" width="50" height="50" as="geometry" />
        </mxCell>
        <mxCell id="ugibJ8a83vaI0rzTOZ7H-422" value="" style="endArrow=classic;html=1;rounded=0;fontFamily=Verdana;fontSize=18;exitX=0.5;exitY=1;exitDx=0;exitDy=0;entryX=0.407;entryY=-0.007;entryDx=0;entryDy=0;entryPerimeter=0;" edge="1" parent="1" source="ugibJ8a83vaI0rzTOZ7H-419" target="ugibJ8a83vaI0rzTOZ7H-421">
          <mxGeometry width="50" height="50" relative="1" as="geometry">
            <mxPoint x="910" y="1180" as="sourcePoint" />
            <mxPoint x="960" y="1130" as="targetPoint" />
          </mxGeometry>
        </mxCell>
        <mxCell id="ugibJ8a83vaI0rzTOZ7H-423" value="" style="endArrow=classic;html=1;rounded=0;fontFamily=Verdana;fontSize=18;entryX=0.5;entryY=0;entryDx=0;entryDy=0;" edge="1" parent="1" source="ugibJ8a83vaI0rzTOZ7H-420" target="ugibJ8a83vaI0rzTOZ7H-421">
          <mxGeometry width="50" height="50" relative="1" as="geometry">
            <mxPoint x="865" y="1170" as="sourcePoint" />
            <mxPoint x="910" y="1190" as="targetPoint" />
          </mxGeometry>
        </mxCell>
        <mxCell id="ugibJ8a83vaI0rzTOZ7H-424" value="30" style="text;html=1;align=center;verticalAlign=middle;resizable=0;points=[];autosize=1;strokeColor=none;fillColor=none;fontSize=18;fontFamily=Verdana;" vertex="1" parent="1">
          <mxGeometry x="925" y="995" width="50" height="40" as="geometry" />
        </mxCell>
        <mxCell id="ugibJ8a83vaI0rzTOZ7H-425" value="23" style="text;html=1;align=center;verticalAlign=middle;resizable=0;points=[];autosize=1;strokeColor=none;fillColor=none;fontSize=18;fontFamily=Verdana;" vertex="1" parent="1">
          <mxGeometry x="845" y="1075" width="50" height="40" as="geometry" />
        </mxCell>
        <mxCell id="ugibJ8a83vaI0rzTOZ7H-426" value="24" style="text;html=1;align=center;verticalAlign=middle;resizable=0;points=[];autosize=1;strokeColor=none;fillColor=none;fontSize=18;fontFamily=Verdana;" vertex="1" parent="1">
          <mxGeometry x="875" y="1130" width="50" height="40" as="geometry" />
        </mxCell>
        <mxCell id="ugibJ8a83vaI0rzTOZ7H-427" style="edgeStyle=orthogonalEdgeStyle;rounded=0;orthogonalLoop=1;jettySize=auto;html=1;entryX=0.5;entryY=0;entryDx=0;entryDy=0;fontFamily=Verdana;fontSize=18;" edge="1" parent="1" target="ugibJ8a83vaI0rzTOZ7H-428">
          <mxGeometry relative="1" as="geometry">
            <mxPoint x="1012.5" y="990" as="sourcePoint" />
          </mxGeometry>
        </mxCell>
        <mxCell id="ugibJ8a83vaI0rzTOZ7H-428" value="D" style="ellipse;whiteSpace=wrap;html=1;aspect=fixed;fontSize=18;fontStyle=1" vertex="1" parent="1">
          <mxGeometry x="987.5" y="1030" width="50" height="50" as="geometry" />
        </mxCell>
        <mxCell id="ugibJ8a83vaI0rzTOZ7H-429" value="I" style="ellipse;whiteSpace=wrap;html=1;aspect=fixed;fontSize=18;fontStyle=1" vertex="1" parent="1">
          <mxGeometry x="970" y="1230" width="50" height="50" as="geometry" />
        </mxCell>
        <mxCell id="ugibJ8a83vaI0rzTOZ7H-430" value="" style="endArrow=classic;html=1;rounded=0;fontFamily=Verdana;fontSize=18;entryX=0.5;entryY=0;entryDx=0;entryDy=0;" edge="1" parent="1" source="ugibJ8a83vaI0rzTOZ7H-428" target="ugibJ8a83vaI0rzTOZ7H-429">
          <mxGeometry width="50" height="50" relative="1" as="geometry">
            <mxPoint x="942.5" y="1170" as="sourcePoint" />
            <mxPoint x="987.5" y="1190" as="targetPoint" />
          </mxGeometry>
        </mxCell>
        <mxCell id="ugibJ8a83vaI0rzTOZ7H-431" value="30" style="text;html=1;align=center;verticalAlign=middle;resizable=0;points=[];autosize=1;strokeColor=none;fillColor=none;fontSize=18;fontFamily=Verdana;" vertex="1" parent="1">
          <mxGeometry x="1002.5" y="995" width="50" height="40" as="geometry" />
        </mxCell>
        <mxCell id="ugibJ8a83vaI0rzTOZ7H-432" value="" style="endArrow=classic;html=1;rounded=0;entryX=0.5;entryY=0;entryDx=0;entryDy=0;exitX=1;exitY=0.5;exitDx=0;exitDy=0;fontSize=18;" edge="1" parent="1" source="ugibJ8a83vaI0rzTOZ7H-421" target="ugibJ8a83vaI0rzTOZ7H-429">
          <mxGeometry width="50" height="50" relative="1" as="geometry">
            <mxPoint x="920" y="1260" as="sourcePoint" />
            <mxPoint x="970" y="1210" as="targetPoint" />
          </mxGeometry>
        </mxCell>
        <mxCell id="ugibJ8a83vaI0rzTOZ7H-433" value="24" style="text;html=1;align=center;verticalAlign=middle;resizable=0;points=[];autosize=1;strokeColor=none;fillColor=none;fontSize=18;" vertex="1" parent="1">
          <mxGeometry x="960" y="1180" width="40" height="40" as="geometry" />
        </mxCell>
        <mxCell id="ugibJ8a83vaI0rzTOZ7H-434" style="edgeStyle=orthogonalEdgeStyle;rounded=0;orthogonalLoop=1;jettySize=auto;html=1;entryX=0.5;entryY=0;entryDx=0;entryDy=0;fontFamily=Verdana;fontSize=18;exitX=0.5;exitY=1;exitDx=0;exitDy=0;" edge="1" parent="1" source="ugibJ8a83vaI0rzTOZ7H-429" target="ugibJ8a83vaI0rzTOZ7H-436">
          <mxGeometry relative="1" as="geometry">
            <mxPoint x="995" y="1285" as="sourcePoint" />
          </mxGeometry>
        </mxCell>
        <mxCell id="ugibJ8a83vaI0rzTOZ7H-435" style="edgeStyle=orthogonalEdgeStyle;rounded=0;orthogonalLoop=1;jettySize=auto;html=1;entryX=0.5;entryY=0;entryDx=0;entryDy=0;fontFamily=Verdana;fontSize=18;" edge="1" parent="1" source="ugibJ8a83vaI0rzTOZ7H-436" target="ugibJ8a83vaI0rzTOZ7H-437">
          <mxGeometry relative="1" as="geometry" />
        </mxCell>
        <mxCell id="ugibJ8a83vaI0rzTOZ7H-436" value="R" style="ellipse;whiteSpace=wrap;html=1;aspect=fixed;fontSize=18;fontStyle=1" vertex="1" parent="1">
          <mxGeometry x="970" y="1310" width="50" height="50" as="geometry" />
        </mxCell>
        <mxCell id="ugibJ8a83vaI0rzTOZ7H-437" value="H" style="ellipse;whiteSpace=wrap;html=1;aspect=fixed;fontSize=18;fontStyle=1" vertex="1" parent="1">
          <mxGeometry x="970" y="1385" width="50" height="50" as="geometry" />
        </mxCell>
        <mxCell id="ugibJ8a83vaI0rzTOZ7H-438" value="13" style="text;html=1;align=center;verticalAlign=middle;resizable=0;points=[];autosize=1;strokeColor=none;fillColor=none;fontSize=18;fontFamily=Verdana;" vertex="1" parent="1">
          <mxGeometry x="985" y="1355" width="50" height="40" as="geometry" />
        </mxCell>
        <mxCell id="ugibJ8a83vaI0rzTOZ7H-439" value="19" style="text;html=1;align=center;verticalAlign=middle;resizable=0;points=[];autosize=1;strokeColor=none;fillColor=none;fontSize=18;fontFamily=Verdana;" vertex="1" parent="1">
          <mxGeometry x="992.5" y="1270" width="50" height="40" as="geometry" />
        </mxCell>
        <mxCell id="ugibJ8a83vaI0rzTOZ7H-440" value="U" style="ellipse;whiteSpace=wrap;html=1;aspect=fixed;fontSize=18;fontStyle=1" vertex="1" parent="1">
          <mxGeometry x="970" y="1460" width="50" height="50" as="geometry" />
        </mxCell>
        <mxCell id="ugibJ8a83vaI0rzTOZ7H-441" style="edgeStyle=orthogonalEdgeStyle;rounded=0;orthogonalLoop=1;jettySize=auto;html=1;entryX=0.5;entryY=0;entryDx=0;entryDy=0;fontFamily=Verdana;fontSize=18;exitX=0.5;exitY=1;exitDx=0;exitDy=0;" edge="1" parent="1" source="ugibJ8a83vaI0rzTOZ7H-437" target="ugibJ8a83vaI0rzTOZ7H-440">
          <mxGeometry relative="1" as="geometry">
            <mxPoint x="995" y="1445" as="sourcePoint" />
            <mxPoint x="995" y="1475" as="targetPoint" />
          </mxGeometry>
        </mxCell>
        <mxCell id="ugibJ8a83vaI0rzTOZ7H-442" value="9" style="text;html=1;align=center;verticalAlign=middle;resizable=0;points=[];autosize=1;strokeColor=none;fillColor=none;fontSize=18;fontFamily=Verdana;" vertex="1" parent="1">
          <mxGeometry x="990" y="1425" width="30" height="40" as="geometry" />
        </mxCell>
        <mxCell id="ugibJ8a83vaI0rzTOZ7H-443" style="edgeStyle=orthogonalEdgeStyle;rounded=0;orthogonalLoop=1;jettySize=auto;html=1;entryX=0.5;entryY=0;entryDx=0;entryDy=0;fontFamily=Verdana;fontSize=18;" edge="1" parent="1" target="ugibJ8a83vaI0rzTOZ7H-444">
          <mxGeometry relative="1" as="geometry">
            <mxPoint x="995" y="1510" as="sourcePoint" />
          </mxGeometry>
        </mxCell>
        <mxCell id="ugibJ8a83vaI0rzTOZ7H-444" value="T" style="ellipse;whiteSpace=wrap;html=1;aspect=fixed;fontSize=18;fontStyle=1" vertex="1" parent="1">
          <mxGeometry x="970" y="1535" width="50" height="50" as="geometry" />
        </mxCell>
        <mxCell id="ugibJ8a83vaI0rzTOZ7H-445" value="7" style="text;html=1;align=center;verticalAlign=middle;resizable=0;points=[];autosize=1;strokeColor=none;fillColor=none;fontSize=18;fontFamily=Verdana;" vertex="1" parent="1">
          <mxGeometry x="995" y="1505" width="30" height="40" as="geometry" />
        </mxCell>
        <mxCell id="ugibJ8a83vaI0rzTOZ7H-451" style="edgeStyle=orthogonalEdgeStyle;rounded=0;orthogonalLoop=1;jettySize=auto;html=1;entryX=0.5;entryY=0;entryDx=0;entryDy=0;fontSize=18;" edge="1" parent="1" source="ugibJ8a83vaI0rzTOZ7H-446" target="ugibJ8a83vaI0rzTOZ7H-449">
          <mxGeometry relative="1" as="geometry">
            <Array as="points">
              <mxPoint x="775" y="1630" />
            </Array>
          </mxGeometry>
        </mxCell>
        <mxCell id="ugibJ8a83vaI0rzTOZ7H-446" value="A" style="ellipse;whiteSpace=wrap;html=1;aspect=fixed;fontSize=18;fontStyle=1" vertex="1" parent="1">
          <mxGeometry x="970" y="1610" width="50" height="50" as="geometry" />
        </mxCell>
        <mxCell id="ugibJ8a83vaI0rzTOZ7H-447" style="edgeStyle=orthogonalEdgeStyle;rounded=0;orthogonalLoop=1;jettySize=auto;html=1;entryX=0.5;entryY=0;entryDx=0;entryDy=0;fontFamily=Verdana;fontSize=18;exitX=0.5;exitY=1;exitDx=0;exitDy=0;" edge="1" parent="1" source="ugibJ8a83vaI0rzTOZ7H-444" target="ugibJ8a83vaI0rzTOZ7H-446">
          <mxGeometry relative="1" as="geometry">
            <mxPoint x="995" y="1595" as="sourcePoint" />
            <mxPoint x="995" y="1625" as="targetPoint" />
          </mxGeometry>
        </mxCell>
        <mxCell id="ugibJ8a83vaI0rzTOZ7H-448" value="4" style="text;html=1;align=center;verticalAlign=middle;resizable=0;points=[];autosize=1;strokeColor=none;fillColor=none;fontSize=18;fontFamily=Verdana;" vertex="1" parent="1">
          <mxGeometry x="990" y="1575" width="30" height="40" as="geometry" />
        </mxCell>
        <mxCell id="ugibJ8a83vaI0rzTOZ7H-456" style="edgeStyle=orthogonalEdgeStyle;rounded=0;orthogonalLoop=1;jettySize=auto;html=1;entryX=0.5;entryY=0;entryDx=0;entryDy=0;fontSize=18;" edge="1" parent="1" target="ugibJ8a83vaI0rzTOZ7H-454">
          <mxGeometry relative="1" as="geometry">
            <mxPoint x="425" y="1760" as="sourcePoint" />
            <Array as="points">
              <mxPoint x="515" y="1760" />
            </Array>
          </mxGeometry>
        </mxCell>
        <mxCell id="ugibJ8a83vaI0rzTOZ7H-449" value="B" style="ellipse;whiteSpace=wrap;html=1;aspect=fixed;fontSize=18;fontStyle=1" vertex="1" parent="1">
          <mxGeometry x="750" y="1690" width="50" height="50" as="geometry" />
        </mxCell>
        <mxCell id="ugibJ8a83vaI0rzTOZ7H-453" value="3" style="text;html=1;align=center;verticalAlign=middle;resizable=0;points=[];autosize=1;strokeColor=none;fillColor=none;fontSize=18;" vertex="1" parent="1">
          <mxGeometry x="750" y="1645" width="30" height="40" as="geometry" />
        </mxCell>
        <mxCell id="ugibJ8a83vaI0rzTOZ7H-475" style="edgeStyle=orthogonalEdgeStyle;rounded=0;orthogonalLoop=1;jettySize=auto;html=1;fontSize=18;" edge="1" parent="1" source="ugibJ8a83vaI0rzTOZ7H-454" target="ugibJ8a83vaI0rzTOZ7H-473">
          <mxGeometry relative="1" as="geometry" />
        </mxCell>
        <mxCell id="ugibJ8a83vaI0rzTOZ7H-454" value="F" style="ellipse;whiteSpace=wrap;html=1;aspect=fixed;fontSize=18;fontStyle=1" vertex="1" parent="1">
          <mxGeometry x="490" y="1790" width="50" height="50" as="geometry" />
        </mxCell>
        <mxCell id="ugibJ8a83vaI0rzTOZ7H-460" value="" style="edgeStyle=orthogonalEdgeStyle;rounded=0;orthogonalLoop=1;jettySize=auto;html=1;entryX=0.5;entryY=0;entryDx=0;entryDy=0;fontSize=18;" edge="1" parent="1" source="ugibJ8a83vaI0rzTOZ7H-449" target="ugibJ8a83vaI0rzTOZ7H-454">
          <mxGeometry relative="1" as="geometry">
            <mxPoint x="775" y="1740" as="sourcePoint" />
            <mxPoint x="515" y="1790" as="targetPoint" />
            <Array as="points">
              <mxPoint x="775" y="1760" />
              <mxPoint x="515" y="1760" />
            </Array>
          </mxGeometry>
        </mxCell>
        <mxCell id="ugibJ8a83vaI0rzTOZ7H-459" value="15" style="text;html=1;align=center;verticalAlign=middle;resizable=0;points=[];autosize=1;strokeColor=none;fillColor=none;fontSize=18;" vertex="1" parent="1">
          <mxGeometry x="480" y="1755" width="40" height="40" as="geometry" />
        </mxCell>
        <mxCell id="ugibJ8a83vaI0rzTOZ7H-461" style="edgeStyle=orthogonalEdgeStyle;rounded=0;orthogonalLoop=1;jettySize=auto;html=1;entryX=0.5;entryY=0;entryDx=0;entryDy=0;fontFamily=Verdana;fontSize=18;" edge="1" parent="1" target="ugibJ8a83vaI0rzTOZ7H-462">
          <mxGeometry relative="1" as="geometry">
            <mxPoint x="130" y="990" as="sourcePoint" />
          </mxGeometry>
        </mxCell>
        <mxCell id="ugibJ8a83vaI0rzTOZ7H-462" value="H" style="ellipse;whiteSpace=wrap;html=1;aspect=fixed;fontSize=18;fontStyle=1" vertex="1" parent="1">
          <mxGeometry x="105" y="1015" width="50" height="50" as="geometry" />
        </mxCell>
        <mxCell id="ugibJ8a83vaI0rzTOZ7H-463" value="11" style="text;html=1;align=center;verticalAlign=middle;resizable=0;points=[];autosize=1;strokeColor=none;fillColor=none;fontSize=18;fontFamily=Verdana;" vertex="1" parent="1">
          <mxGeometry x="120" y="985" width="50" height="40" as="geometry" />
        </mxCell>
        <mxCell id="ugibJ8a83vaI0rzTOZ7H-464" value="U" style="ellipse;whiteSpace=wrap;html=1;aspect=fixed;fontSize=18;fontStyle=1" vertex="1" parent="1">
          <mxGeometry x="105" y="1090" width="50" height="50" as="geometry" />
        </mxCell>
        <mxCell id="ugibJ8a83vaI0rzTOZ7H-465" style="edgeStyle=orthogonalEdgeStyle;rounded=0;orthogonalLoop=1;jettySize=auto;html=1;entryX=0.5;entryY=0;entryDx=0;entryDy=0;fontFamily=Verdana;fontSize=18;exitX=0.5;exitY=1;exitDx=0;exitDy=0;" edge="1" parent="1" source="ugibJ8a83vaI0rzTOZ7H-462" target="ugibJ8a83vaI0rzTOZ7H-464">
          <mxGeometry relative="1" as="geometry">
            <mxPoint x="130" y="1075" as="sourcePoint" />
            <mxPoint x="130" y="1105" as="targetPoint" />
          </mxGeometry>
        </mxCell>
        <mxCell id="ugibJ8a83vaI0rzTOZ7H-466" value="9" style="text;html=1;align=center;verticalAlign=middle;resizable=0;points=[];autosize=1;strokeColor=none;fillColor=none;fontSize=18;fontFamily=Verdana;" vertex="1" parent="1">
          <mxGeometry x="125" y="1055" width="30" height="40" as="geometry" />
        </mxCell>
        <mxCell id="ugibJ8a83vaI0rzTOZ7H-467" style="edgeStyle=orthogonalEdgeStyle;rounded=0;orthogonalLoop=1;jettySize=auto;html=1;entryX=0.5;entryY=0;entryDx=0;entryDy=0;fontFamily=Verdana;fontSize=18;" edge="1" parent="1" target="ugibJ8a83vaI0rzTOZ7H-468">
          <mxGeometry relative="1" as="geometry">
            <mxPoint x="130" y="1140" as="sourcePoint" />
          </mxGeometry>
        </mxCell>
        <mxCell id="ugibJ8a83vaI0rzTOZ7H-468" value="T" style="ellipse;whiteSpace=wrap;html=1;aspect=fixed;fontSize=18;fontStyle=1" vertex="1" parent="1">
          <mxGeometry x="105" y="1165" width="50" height="50" as="geometry" />
        </mxCell>
        <mxCell id="ugibJ8a83vaI0rzTOZ7H-469" value="7" style="text;html=1;align=center;verticalAlign=middle;resizable=0;points=[];autosize=1;strokeColor=none;fillColor=none;fontSize=18;fontFamily=Verdana;" vertex="1" parent="1">
          <mxGeometry x="130" y="1135" width="30" height="40" as="geometry" />
        </mxCell>
        <mxCell id="ugibJ8a83vaI0rzTOZ7H-470" value="A" style="ellipse;whiteSpace=wrap;html=1;aspect=fixed;fontSize=18;fontStyle=1" vertex="1" parent="1">
          <mxGeometry x="105" y="1240" width="50" height="50" as="geometry" />
        </mxCell>
        <mxCell id="ugibJ8a83vaI0rzTOZ7H-471" style="edgeStyle=orthogonalEdgeStyle;rounded=0;orthogonalLoop=1;jettySize=auto;html=1;entryX=0.5;entryY=0;entryDx=0;entryDy=0;fontFamily=Verdana;fontSize=18;exitX=0.5;exitY=1;exitDx=0;exitDy=0;" edge="1" parent="1" source="ugibJ8a83vaI0rzTOZ7H-468" target="ugibJ8a83vaI0rzTOZ7H-470">
          <mxGeometry relative="1" as="geometry">
            <mxPoint x="130" y="1225" as="sourcePoint" />
            <mxPoint x="130" y="1255" as="targetPoint" />
          </mxGeometry>
        </mxCell>
        <mxCell id="ugibJ8a83vaI0rzTOZ7H-472" value="4" style="text;html=1;align=center;verticalAlign=middle;resizable=0;points=[];autosize=1;strokeColor=none;fillColor=none;fontSize=18;fontFamily=Verdana;" vertex="1" parent="1">
          <mxGeometry x="125" y="1205" width="30" height="40" as="geometry" />
        </mxCell>
        <mxCell id="ugibJ8a83vaI0rzTOZ7H-476" style="edgeStyle=orthogonalEdgeStyle;rounded=0;orthogonalLoop=1;jettySize=auto;html=1;entryX=0.5;entryY=0;entryDx=0;entryDy=0;fontSize=18;" edge="1" parent="1" source="ugibJ8a83vaI0rzTOZ7H-473" target="ugibJ8a83vaI0rzTOZ7H-474">
          <mxGeometry relative="1" as="geometry" />
        </mxCell>
        <mxCell id="ugibJ8a83vaI0rzTOZ7H-473" value="H" style="ellipse;whiteSpace=wrap;html=1;aspect=fixed;fontSize=18;fontStyle=1" vertex="1" parent="1">
          <mxGeometry x="490" y="1860" width="50" height="50" as="geometry" />
        </mxCell>
        <mxCell id="ugibJ8a83vaI0rzTOZ7H-503" style="edgeStyle=orthogonalEdgeStyle;rounded=0;orthogonalLoop=1;jettySize=auto;html=1;entryX=0.5;entryY=0;entryDx=0;entryDy=0;fontSize=18;" edge="1" parent="1" source="ugibJ8a83vaI0rzTOZ7H-474" target="ugibJ8a83vaI0rzTOZ7H-502">
          <mxGeometry relative="1" as="geometry">
            <Array as="points">
              <mxPoint x="1175" y="1960" />
            </Array>
          </mxGeometry>
        </mxCell>
        <mxCell id="ugibJ8a83vaI0rzTOZ7H-474" value="U" style="ellipse;whiteSpace=wrap;html=1;aspect=fixed;fontSize=18;fontStyle=1" vertex="1" parent="1">
          <mxGeometry x="490" y="1930" width="50" height="50" as="geometry" />
        </mxCell>
        <mxCell id="ugibJ8a83vaI0rzTOZ7H-477" value="11" style="text;html=1;align=center;verticalAlign=middle;resizable=0;points=[];autosize=1;strokeColor=none;fillColor=none;fontSize=18;" vertex="1" parent="1">
          <mxGeometry x="520" y="1835" width="40" height="40" as="geometry" />
        </mxCell>
        <mxCell id="ugibJ8a83vaI0rzTOZ7H-478" value="9" style="text;html=1;align=center;verticalAlign=middle;resizable=0;points=[];autosize=1;strokeColor=none;fillColor=none;fontSize=18;" vertex="1" parent="1">
          <mxGeometry x="520" y="1905" width="30" height="40" as="geometry" />
        </mxCell>
        <mxCell id="ugibJ8a83vaI0rzTOZ7H-490" style="edgeStyle=orthogonalEdgeStyle;rounded=0;orthogonalLoop=1;jettySize=auto;html=1;entryX=0.5;entryY=0;entryDx=0;entryDy=0;fontFamily=Verdana;fontSize=18;" edge="1" parent="1" target="ugibJ8a83vaI0rzTOZ7H-491">
          <mxGeometry relative="1" as="geometry">
            <mxPoint x="1256.25" y="990" as="sourcePoint" />
          </mxGeometry>
        </mxCell>
        <mxCell id="ugibJ8a83vaI0rzTOZ7H-491" value="D" style="ellipse;whiteSpace=wrap;html=1;aspect=fixed;fontSize=18;fontStyle=1" vertex="1" parent="1">
          <mxGeometry x="1231.25" y="1030" width="50" height="50" as="geometry" />
        </mxCell>
        <mxCell id="ugibJ8a83vaI0rzTOZ7H-492" value="I" style="ellipse;whiteSpace=wrap;html=1;aspect=fixed;fontSize=18;fontStyle=1" vertex="1" parent="1">
          <mxGeometry x="1230" y="1120" width="50" height="50" as="geometry" />
        </mxCell>
        <mxCell id="ugibJ8a83vaI0rzTOZ7H-493" value="" style="endArrow=classic;html=1;rounded=0;fontFamily=Verdana;fontSize=18;entryX=0.5;entryY=0;entryDx=0;entryDy=0;" edge="1" parent="1" source="ugibJ8a83vaI0rzTOZ7H-491" target="ugibJ8a83vaI0rzTOZ7H-492">
          <mxGeometry width="50" height="50" relative="1" as="geometry">
            <mxPoint x="1186.25" y="1170" as="sourcePoint" />
            <mxPoint x="1231.25" y="1190" as="targetPoint" />
          </mxGeometry>
        </mxCell>
        <mxCell id="ugibJ8a83vaI0rzTOZ7H-494" value="30" style="text;html=1;align=center;verticalAlign=middle;resizable=0;points=[];autosize=1;strokeColor=none;fillColor=none;fontSize=18;fontFamily=Verdana;" vertex="1" parent="1">
          <mxGeometry x="1246.25" y="995" width="50" height="40" as="geometry" />
        </mxCell>
        <mxCell id="ugibJ8a83vaI0rzTOZ7H-495" style="edgeStyle=orthogonalEdgeStyle;rounded=0;orthogonalLoop=1;jettySize=auto;html=1;entryX=0.5;entryY=0;entryDx=0;entryDy=0;fontFamily=Verdana;fontSize=18;exitX=0.5;exitY=1;exitDx=0;exitDy=0;" edge="1" parent="1" source="ugibJ8a83vaI0rzTOZ7H-492" target="ugibJ8a83vaI0rzTOZ7H-497">
          <mxGeometry relative="1" as="geometry">
            <mxPoint x="1238.75" y="1285" as="sourcePoint" />
          </mxGeometry>
        </mxCell>
        <mxCell id="ugibJ8a83vaI0rzTOZ7H-496" style="edgeStyle=orthogonalEdgeStyle;rounded=0;orthogonalLoop=1;jettySize=auto;html=1;entryX=0.5;entryY=0;entryDx=0;entryDy=0;fontFamily=Verdana;fontSize=18;" edge="1" parent="1" source="ugibJ8a83vaI0rzTOZ7H-497" target="ugibJ8a83vaI0rzTOZ7H-498">
          <mxGeometry relative="1" as="geometry" />
        </mxCell>
        <mxCell id="ugibJ8a83vaI0rzTOZ7H-497" value="R" style="ellipse;whiteSpace=wrap;html=1;aspect=fixed;fontSize=18;fontStyle=1" vertex="1" parent="1">
          <mxGeometry x="1230" y="1215" width="50" height="50" as="geometry" />
        </mxCell>
        <mxCell id="ugibJ8a83vaI0rzTOZ7H-505" style="edgeStyle=orthogonalEdgeStyle;rounded=0;orthogonalLoop=1;jettySize=auto;html=1;entryX=0.5;entryY=0;entryDx=0;entryDy=0;fontSize=18;" edge="1" parent="1" source="ugibJ8a83vaI0rzTOZ7H-498" target="ugibJ8a83vaI0rzTOZ7H-502">
          <mxGeometry relative="1" as="geometry">
            <Array as="points">
              <mxPoint x="1255" y="1960" />
              <mxPoint x="1175" y="1960" />
            </Array>
          </mxGeometry>
        </mxCell>
        <mxCell id="ugibJ8a83vaI0rzTOZ7H-498" value="H" style="ellipse;whiteSpace=wrap;html=1;aspect=fixed;fontSize=18;fontStyle=1" vertex="1" parent="1">
          <mxGeometry x="1230" y="1305" width="50" height="50" as="geometry" />
        </mxCell>
        <mxCell id="ugibJ8a83vaI0rzTOZ7H-499" value="13" style="text;html=1;align=center;verticalAlign=middle;resizable=0;points=[];autosize=1;strokeColor=none;fillColor=none;fontSize=18;fontFamily=Verdana;" vertex="1" parent="1">
          <mxGeometry x="1251.25" y="1260" width="50" height="40" as="geometry" />
        </mxCell>
        <mxCell id="ugibJ8a83vaI0rzTOZ7H-500" value="19" style="text;html=1;align=center;verticalAlign=middle;resizable=0;points=[];autosize=1;strokeColor=none;fillColor=none;fontSize=18;fontFamily=Verdana;" vertex="1" parent="1">
          <mxGeometry x="1250" y="1170" width="50" height="40" as="geometry" />
        </mxCell>
        <mxCell id="ugibJ8a83vaI0rzTOZ7H-501" value="23" style="text;html=1;align=center;verticalAlign=middle;resizable=0;points=[];autosize=1;strokeColor=none;fillColor=none;fontSize=18;" vertex="1" parent="1">
          <mxGeometry x="1250" y="1080" width="40" height="40" as="geometry" />
        </mxCell>
        <mxCell id="ugibJ8a83vaI0rzTOZ7H-502" value="U" style="ellipse;whiteSpace=wrap;html=1;aspect=fixed;fontSize=18;fontStyle=1" vertex="1" parent="1">
          <mxGeometry x="1150" y="1980" width="50" height="50" as="geometry" />
        </mxCell>
        <mxCell id="ugibJ8a83vaI0rzTOZ7H-506" value="+" style="ellipse;whiteSpace=wrap;html=1;aspect=fixed;fontSize=18;fontStyle=1" vertex="1" parent="1">
          <mxGeometry x="235" y="2200" width="50" height="50" as="geometry" />
        </mxCell>
        <mxCell id="ugibJ8a83vaI0rzTOZ7H-1006" style="edgeStyle=orthogonalEdgeStyle;rounded=0;orthogonalLoop=1;jettySize=auto;html=1;entryX=0.5;entryY=0;entryDx=0;entryDy=0;" edge="1" parent="1" source="ugibJ8a83vaI0rzTOZ7H-515" target="ugibJ8a83vaI0rzTOZ7H-1005">
          <mxGeometry relative="1" as="geometry">
            <Array as="points">
              <mxPoint x="100" y="2450" />
              <mxPoint x="260" y="2450" />
            </Array>
          </mxGeometry>
        </mxCell>
        <mxCell id="ugibJ8a83vaI0rzTOZ7H-515" value="(" style="ellipse;whiteSpace=wrap;html=1;aspect=fixed;fontSize=18;fontStyle=1" vertex="1" parent="1">
          <mxGeometry x="75" y="2200" width="50" height="50" as="geometry" />
        </mxCell>
        <mxCell id="ugibJ8a83vaI0rzTOZ7H-1007" style="edgeStyle=orthogonalEdgeStyle;rounded=0;orthogonalLoop=1;jettySize=auto;html=1;entryX=0.5;entryY=0;entryDx=0;entryDy=0;" edge="1" parent="1" source="ugibJ8a83vaI0rzTOZ7H-526" target="ugibJ8a83vaI0rzTOZ7H-1005">
          <mxGeometry relative="1" as="geometry">
            <Array as="points">
              <mxPoint x="420" y="2450" />
              <mxPoint x="260" y="2450" />
            </Array>
          </mxGeometry>
        </mxCell>
        <mxCell id="ugibJ8a83vaI0rzTOZ7H-526" value=")" style="ellipse;whiteSpace=wrap;html=1;aspect=fixed;fontSize=18;fontStyle=1" vertex="1" parent="1">
          <mxGeometry x="395" y="2200" width="50" height="50" as="geometry" />
        </mxCell>
        <mxCell id="ugibJ8a83vaI0rzTOZ7H-1001" style="edgeStyle=orthogonalEdgeStyle;rounded=0;orthogonalLoop=1;jettySize=auto;html=1;" edge="1" parent="1" source="ugibJ8a83vaI0rzTOZ7H-638" target="ugibJ8a83vaI0rzTOZ7H-996">
          <mxGeometry relative="1" as="geometry">
            <Array as="points">
              <mxPoint x="180" y="2350" />
              <mxPoint x="260" y="2350" />
            </Array>
          </mxGeometry>
        </mxCell>
        <mxCell id="ugibJ8a83vaI0rzTOZ7H-638" value="A" style="ellipse;whiteSpace=wrap;html=1;aspect=fixed;fontSize=18;fontStyle=1" vertex="1" parent="1">
          <mxGeometry x="155" y="2200" width="50" height="50" as="geometry" />
        </mxCell>
        <mxCell id="ugibJ8a83vaI0rzTOZ7H-994" style="edgeStyle=orthogonalEdgeStyle;rounded=0;orthogonalLoop=1;jettySize=auto;html=1;entryX=0.5;entryY=0;entryDx=0;entryDy=0;" edge="1" parent="1" source="ugibJ8a83vaI0rzTOZ7H-660" target="ugibJ8a83vaI0rzTOZ7H-993">
          <mxGeometry relative="1" as="geometry" />
        </mxCell>
        <mxCell id="ugibJ8a83vaI0rzTOZ7H-660" value="U" style="ellipse;whiteSpace=wrap;html=1;aspect=fixed;fontSize=18;fontStyle=1" vertex="1" parent="1">
          <mxGeometry x="315" y="2200" width="50" height="50" as="geometry" />
        </mxCell>
        <mxCell id="ugibJ8a83vaI0rzTOZ7H-661" value="10" style="text;html=1;align=center;verticalAlign=middle;resizable=0;points=[];autosize=1;strokeColor=none;fillColor=none;fontSize=18;" vertex="1" parent="1">
          <mxGeometry x="1130" y="1920" width="40" height="40" as="geometry" />
        </mxCell>
        <mxCell id="ugibJ8a83vaI0rzTOZ7H-664" value="x" style="ellipse;whiteSpace=wrap;html=1;aspect=fixed;fontSize=18;fontStyle=1" vertex="1" parent="1">
          <mxGeometry x="635" y="2200" width="50" height="50" as="geometry" />
        </mxCell>
        <mxCell id="ugibJ8a83vaI0rzTOZ7H-665" value="/" style="ellipse;whiteSpace=wrap;html=1;aspect=fixed;fontSize=18;fontStyle=1" vertex="1" parent="1">
          <mxGeometry x="475" y="2200" width="50" height="50" as="geometry" />
        </mxCell>
        <mxCell id="ugibJ8a83vaI0rzTOZ7H-666" value="2" style="ellipse;whiteSpace=wrap;html=1;aspect=fixed;fontSize=18;fontStyle=1" vertex="1" parent="1">
          <mxGeometry x="795" y="2200" width="50" height="50" as="geometry" />
        </mxCell>
        <mxCell id="ugibJ8a83vaI0rzTOZ7H-842" style="edgeStyle=orthogonalEdgeStyle;rounded=0;orthogonalLoop=1;jettySize=auto;html=1;entryX=0.5;entryY=0;entryDx=0;entryDy=0;fontSize=18;" edge="1" parent="1" source="ugibJ8a83vaI0rzTOZ7H-667" target="ugibJ8a83vaI0rzTOZ7H-840">
          <mxGeometry relative="1" as="geometry">
            <Array as="points">
              <mxPoint x="580" y="2840" />
              <mxPoint x="740" y="2840" />
            </Array>
          </mxGeometry>
        </mxCell>
        <mxCell id="ugibJ8a83vaI0rzTOZ7H-667" value="(" style="ellipse;whiteSpace=wrap;html=1;aspect=fixed;fontSize=18;fontStyle=1" vertex="1" parent="1">
          <mxGeometry x="555" y="2200" width="50" height="50" as="geometry" />
        </mxCell>
        <mxCell id="ugibJ8a83vaI0rzTOZ7H-839" style="edgeStyle=orthogonalEdgeStyle;rounded=0;orthogonalLoop=1;jettySize=auto;html=1;entryX=0.5;entryY=0;entryDx=0;entryDy=0;fontSize=18;" edge="1" parent="1" source="ugibJ8a83vaI0rzTOZ7H-668" target="ugibJ8a83vaI0rzTOZ7H-711">
          <mxGeometry relative="1" as="geometry">
            <mxPoint x="735" y="2780" as="targetPoint" />
          </mxGeometry>
        </mxCell>
        <mxCell id="ugibJ8a83vaI0rzTOZ7H-668" value="-" style="ellipse;whiteSpace=wrap;html=1;aspect=fixed;fontSize=18;fontStyle=1" vertex="1" parent="1">
          <mxGeometry x="715" y="2200" width="50" height="50" as="geometry" />
        </mxCell>
        <mxCell id="ugibJ8a83vaI0rzTOZ7H-669" value="y" style="ellipse;whiteSpace=wrap;html=1;aspect=fixed;fontSize=18;fontStyle=1" vertex="1" parent="1">
          <mxGeometry x="1035" y="2200" width="50" height="50" as="geometry" />
        </mxCell>
        <mxCell id="ugibJ8a83vaI0rzTOZ7H-843" style="edgeStyle=orthogonalEdgeStyle;rounded=0;orthogonalLoop=1;jettySize=auto;html=1;entryX=0.5;entryY=0;entryDx=0;entryDy=0;fontSize=18;" edge="1" parent="1" source="ugibJ8a83vaI0rzTOZ7H-670" target="ugibJ8a83vaI0rzTOZ7H-840">
          <mxGeometry relative="1" as="geometry">
            <Array as="points">
              <mxPoint x="900" y="2840" />
              <mxPoint x="740" y="2840" />
            </Array>
          </mxGeometry>
        </mxCell>
        <mxCell id="ugibJ8a83vaI0rzTOZ7H-670" value=")" style="ellipse;whiteSpace=wrap;html=1;aspect=fixed;fontSize=18;fontStyle=1" vertex="1" parent="1">
          <mxGeometry x="875" y="2200" width="50" height="50" as="geometry" />
        </mxCell>
        <mxCell id="ugibJ8a83vaI0rzTOZ7H-671" value="2" style="ellipse;whiteSpace=wrap;html=1;aspect=fixed;fontSize=18;fontStyle=1" vertex="1" parent="1">
          <mxGeometry x="1195" y="2200" width="50" height="50" as="geometry" />
        </mxCell>
        <mxCell id="ugibJ8a83vaI0rzTOZ7H-672" value="*" style="ellipse;whiteSpace=wrap;html=1;aspect=fixed;fontSize=18;fontStyle=1" vertex="1" parent="1">
          <mxGeometry x="955" y="2200" width="50" height="50" as="geometry" />
        </mxCell>
        <mxCell id="ugibJ8a83vaI0rzTOZ7H-847" style="edgeStyle=orthogonalEdgeStyle;rounded=0;orthogonalLoop=1;jettySize=auto;html=1;" edge="1" parent="1" source="ugibJ8a83vaI0rzTOZ7H-673">
          <mxGeometry relative="1" as="geometry">
            <mxPoint x="1140" y="2640" as="targetPoint" />
          </mxGeometry>
        </mxCell>
        <mxCell id="ugibJ8a83vaI0rzTOZ7H-673" value="^" style="ellipse;whiteSpace=wrap;html=1;aspect=fixed;fontSize=18;fontStyle=1" vertex="1" parent="1">
          <mxGeometry x="1115" y="2200" width="50" height="50" as="geometry" />
        </mxCell>
        <mxCell id="ugibJ8a83vaI0rzTOZ7H-674" value="9" style="ellipse;whiteSpace=wrap;html=1;aspect=fixed;fontSize=18;fontStyle=1" vertex="1" parent="1">
          <mxGeometry x="1355" y="2200" width="50" height="50" as="geometry" />
        </mxCell>
        <mxCell id="ugibJ8a83vaI0rzTOZ7H-675" value="7" style="ellipse;whiteSpace=wrap;html=1;aspect=fixed;fontSize=18;fontStyle=1" vertex="1" parent="1">
          <mxGeometry x="1515" y="2200" width="50" height="50" as="geometry" />
        </mxCell>
        <mxCell id="ugibJ8a83vaI0rzTOZ7H-676" value="," style="ellipse;whiteSpace=wrap;html=1;aspect=fixed;fontSize=18;fontStyle=1" vertex="1" parent="1">
          <mxGeometry x="1275" y="2200" width="50" height="50" as="geometry" />
        </mxCell>
        <mxCell id="ugibJ8a83vaI0rzTOZ7H-856" style="edgeStyle=orthogonalEdgeStyle;rounded=0;orthogonalLoop=1;jettySize=auto;html=1;entryX=0.5;entryY=0;entryDx=0;entryDy=0;" edge="1" parent="1" source="ugibJ8a83vaI0rzTOZ7H-677" target="ugibJ8a83vaI0rzTOZ7H-803">
          <mxGeometry relative="1" as="geometry" />
        </mxCell>
        <mxCell id="ugibJ8a83vaI0rzTOZ7H-677" value="." style="ellipse;whiteSpace=wrap;html=1;aspect=fixed;fontSize=18;fontStyle=1" vertex="1" parent="1">
          <mxGeometry x="1435" y="2200" width="50" height="50" as="geometry" />
        </mxCell>
        <mxCell id="ugibJ8a83vaI0rzTOZ7H-678" style="edgeStyle=orthogonalEdgeStyle;rounded=0;orthogonalLoop=1;jettySize=auto;html=1;fontFamily=Verdana;fontSize=18;" edge="1" parent="1" target="ugibJ8a83vaI0rzTOZ7H-679">
          <mxGeometry relative="1" as="geometry">
            <mxPoint x="660" y="2250" as="sourcePoint" />
          </mxGeometry>
        </mxCell>
        <mxCell id="ugibJ8a83vaI0rzTOZ7H-679" value="L" style="ellipse;whiteSpace=wrap;html=1;aspect=fixed;fontSize=18;fontStyle=1" vertex="1" parent="1">
          <mxGeometry x="635" y="2290" width="50" height="50" as="geometry" />
        </mxCell>
        <mxCell id="ugibJ8a83vaI0rzTOZ7H-680" value="29" style="text;html=1;align=center;verticalAlign=middle;resizable=0;points=[];autosize=1;strokeColor=none;fillColor=none;fontSize=18;fontFamily=Verdana;" vertex="1" parent="1">
          <mxGeometry x="650" y="2255" width="50" height="40" as="geometry" />
        </mxCell>
        <mxCell id="ugibJ8a83vaI0rzTOZ7H-681" style="edgeStyle=orthogonalEdgeStyle;rounded=0;orthogonalLoop=1;jettySize=auto;html=1;entryX=0.5;entryY=0;entryDx=0;entryDy=0;fontFamily=Verdana;fontSize=18;" edge="1" parent="1" target="ugibJ8a83vaI0rzTOZ7H-683">
          <mxGeometry relative="1" as="geometry">
            <mxPoint x="660" y="2340" as="sourcePoint" />
          </mxGeometry>
        </mxCell>
        <mxCell id="ugibJ8a83vaI0rzTOZ7H-682" style="edgeStyle=orthogonalEdgeStyle;rounded=0;orthogonalLoop=1;jettySize=auto;html=1;entryX=0.5;entryY=0;entryDx=0;entryDy=0;fontFamily=Verdana;fontSize=18;" edge="1" parent="1" source="ugibJ8a83vaI0rzTOZ7H-683" target="ugibJ8a83vaI0rzTOZ7H-684">
          <mxGeometry relative="1" as="geometry" />
        </mxCell>
        <mxCell id="ugibJ8a83vaI0rzTOZ7H-683" value="V" style="ellipse;whiteSpace=wrap;html=1;aspect=fixed;fontSize=18;fontStyle=1" vertex="1" parent="1">
          <mxGeometry x="635" y="2365" width="50" height="50" as="geometry" />
        </mxCell>
        <mxCell id="ugibJ8a83vaI0rzTOZ7H-684" value="H" style="ellipse;whiteSpace=wrap;html=1;aspect=fixed;fontSize=18;fontStyle=1" vertex="1" parent="1">
          <mxGeometry x="635" y="2440" width="50" height="50" as="geometry" />
        </mxCell>
        <mxCell id="ugibJ8a83vaI0rzTOZ7H-685" value="12" style="text;html=1;align=center;verticalAlign=middle;resizable=0;points=[];autosize=1;strokeColor=none;fillColor=none;fontSize=18;fontFamily=Verdana;" vertex="1" parent="1">
          <mxGeometry x="650" y="2410" width="50" height="40" as="geometry" />
        </mxCell>
        <mxCell id="ugibJ8a83vaI0rzTOZ7H-686" value="16" style="text;html=1;align=center;verticalAlign=middle;resizable=0;points=[];autosize=1;strokeColor=none;fillColor=none;fontSize=18;fontFamily=Verdana;" vertex="1" parent="1">
          <mxGeometry x="650" y="2330" width="50" height="40" as="geometry" />
        </mxCell>
        <mxCell id="ugibJ8a83vaI0rzTOZ7H-687" value="U" style="ellipse;whiteSpace=wrap;html=1;aspect=fixed;fontSize=18;fontStyle=1" vertex="1" parent="1">
          <mxGeometry x="635" y="2515" width="50" height="50" as="geometry" />
        </mxCell>
        <mxCell id="ugibJ8a83vaI0rzTOZ7H-688" style="edgeStyle=orthogonalEdgeStyle;rounded=0;orthogonalLoop=1;jettySize=auto;html=1;entryX=0.5;entryY=0;entryDx=0;entryDy=0;fontFamily=Verdana;fontSize=18;exitX=0.5;exitY=1;exitDx=0;exitDy=0;" edge="1" parent="1" source="ugibJ8a83vaI0rzTOZ7H-684" target="ugibJ8a83vaI0rzTOZ7H-687">
          <mxGeometry relative="1" as="geometry">
            <mxPoint x="660" y="2500" as="sourcePoint" />
            <mxPoint x="660" y="2530" as="targetPoint" />
          </mxGeometry>
        </mxCell>
        <mxCell id="ugibJ8a83vaI0rzTOZ7H-689" value="9" style="text;html=1;align=center;verticalAlign=middle;resizable=0;points=[];autosize=1;strokeColor=none;fillColor=none;fontSize=18;fontFamily=Verdana;" vertex="1" parent="1">
          <mxGeometry x="655" y="2480" width="30" height="40" as="geometry" />
        </mxCell>
        <mxCell id="ugibJ8a83vaI0rzTOZ7H-690" style="edgeStyle=orthogonalEdgeStyle;rounded=0;orthogonalLoop=1;jettySize=auto;html=1;entryX=0.5;entryY=0;entryDx=0;entryDy=0;fontFamily=Verdana;fontSize=18;" edge="1" parent="1" target="ugibJ8a83vaI0rzTOZ7H-691">
          <mxGeometry relative="1" as="geometry">
            <mxPoint x="660" y="2565" as="sourcePoint" />
          </mxGeometry>
        </mxCell>
        <mxCell id="ugibJ8a83vaI0rzTOZ7H-691" value="T" style="ellipse;whiteSpace=wrap;html=1;aspect=fixed;fontSize=18;fontStyle=1" vertex="1" parent="1">
          <mxGeometry x="635" y="2590" width="50" height="50" as="geometry" />
        </mxCell>
        <mxCell id="ugibJ8a83vaI0rzTOZ7H-692" value="7" style="text;html=1;align=center;verticalAlign=middle;resizable=0;points=[];autosize=1;strokeColor=none;fillColor=none;fontSize=18;fontFamily=Verdana;" vertex="1" parent="1">
          <mxGeometry x="660" y="2560" width="30" height="40" as="geometry" />
        </mxCell>
        <mxCell id="ugibJ8a83vaI0rzTOZ7H-838" style="edgeStyle=orthogonalEdgeStyle;rounded=0;orthogonalLoop=1;jettySize=auto;html=1;entryX=0.5;entryY=0;entryDx=0;entryDy=0;fontSize=18;" edge="1" parent="1" source="ugibJ8a83vaI0rzTOZ7H-693" target="ugibJ8a83vaI0rzTOZ7H-711">
          <mxGeometry relative="1" as="geometry">
            <Array as="points">
              <mxPoint x="660" y="2750" />
              <mxPoint x="740" y="2750" />
            </Array>
          </mxGeometry>
        </mxCell>
        <mxCell id="ugibJ8a83vaI0rzTOZ7H-693" value="A" style="ellipse;whiteSpace=wrap;html=1;aspect=fixed;fontSize=18;fontStyle=1" vertex="1" parent="1">
          <mxGeometry x="635" y="2665" width="50" height="50" as="geometry" />
        </mxCell>
        <mxCell id="ugibJ8a83vaI0rzTOZ7H-694" style="edgeStyle=orthogonalEdgeStyle;rounded=0;orthogonalLoop=1;jettySize=auto;html=1;entryX=0.5;entryY=0;entryDx=0;entryDy=0;fontFamily=Verdana;fontSize=18;exitX=0.5;exitY=1;exitDx=0;exitDy=0;" edge="1" parent="1" source="ugibJ8a83vaI0rzTOZ7H-691" target="ugibJ8a83vaI0rzTOZ7H-693">
          <mxGeometry relative="1" as="geometry">
            <mxPoint x="660" y="2650" as="sourcePoint" />
            <mxPoint x="660" y="2680" as="targetPoint" />
          </mxGeometry>
        </mxCell>
        <mxCell id="ugibJ8a83vaI0rzTOZ7H-695" value="4" style="text;html=1;align=center;verticalAlign=middle;resizable=0;points=[];autosize=1;strokeColor=none;fillColor=none;fontSize=18;fontFamily=Verdana;" vertex="1" parent="1">
          <mxGeometry x="655" y="2630" width="30" height="40" as="geometry" />
        </mxCell>
        <mxCell id="ugibJ8a83vaI0rzTOZ7H-696" style="edgeStyle=orthogonalEdgeStyle;rounded=0;orthogonalLoop=1;jettySize=auto;html=1;fontFamily=Verdana;fontSize=18;" edge="1" parent="1" target="ugibJ8a83vaI0rzTOZ7H-697">
          <mxGeometry relative="1" as="geometry">
            <mxPoint x="817.5" y="2250" as="sourcePoint" />
          </mxGeometry>
        </mxCell>
        <mxCell id="ugibJ8a83vaI0rzTOZ7H-697" value="D" style="ellipse;whiteSpace=wrap;html=1;aspect=fixed;fontSize=18;fontStyle=1" vertex="1" parent="1">
          <mxGeometry x="792.5" y="2290" width="50" height="50" as="geometry" />
        </mxCell>
        <mxCell id="ugibJ8a83vaI0rzTOZ7H-698" value="30" style="text;html=1;align=center;verticalAlign=middle;resizable=0;points=[];autosize=1;strokeColor=none;fillColor=none;fontSize=18;fontFamily=Verdana;" vertex="1" parent="1">
          <mxGeometry x="807.5" y="2255" width="50" height="40" as="geometry" />
        </mxCell>
        <mxCell id="ugibJ8a83vaI0rzTOZ7H-699" style="edgeStyle=orthogonalEdgeStyle;rounded=0;orthogonalLoop=1;jettySize=auto;html=1;entryX=0.5;entryY=0;entryDx=0;entryDy=0;fontFamily=Verdana;fontSize=18;" edge="1" parent="1" target="ugibJ8a83vaI0rzTOZ7H-701">
          <mxGeometry relative="1" as="geometry">
            <mxPoint x="817.5" y="2340" as="sourcePoint" />
          </mxGeometry>
        </mxCell>
        <mxCell id="ugibJ8a83vaI0rzTOZ7H-700" style="edgeStyle=orthogonalEdgeStyle;rounded=0;orthogonalLoop=1;jettySize=auto;html=1;entryX=0.5;entryY=0;entryDx=0;entryDy=0;fontFamily=Verdana;fontSize=18;" edge="1" parent="1" target="ugibJ8a83vaI0rzTOZ7H-702">
          <mxGeometry relative="1" as="geometry">
            <mxPoint x="817.5" y="2485" as="sourcePoint" />
          </mxGeometry>
        </mxCell>
        <mxCell id="ugibJ8a83vaI0rzTOZ7H-836" style="edgeStyle=orthogonalEdgeStyle;rounded=0;orthogonalLoop=1;jettySize=auto;html=1;entryX=0.5;entryY=0;entryDx=0;entryDy=0;fontSize=18;" edge="1" parent="1" source="ugibJ8a83vaI0rzTOZ7H-701" target="ugibJ8a83vaI0rzTOZ7H-834">
          <mxGeometry relative="1" as="geometry" />
        </mxCell>
        <mxCell id="ugibJ8a83vaI0rzTOZ7H-701" value="I" style="ellipse;whiteSpace=wrap;html=1;aspect=fixed;fontSize=18;fontStyle=1" vertex="1" parent="1">
          <mxGeometry x="792.5" y="2365" width="50" height="50" as="geometry" />
        </mxCell>
        <mxCell id="ugibJ8a83vaI0rzTOZ7H-702" value="H" style="ellipse;whiteSpace=wrap;html=1;aspect=fixed;fontSize=18;fontStyle=1" vertex="1" parent="1">
          <mxGeometry x="792.5" y="2520" width="50" height="50" as="geometry" />
        </mxCell>
        <mxCell id="ugibJ8a83vaI0rzTOZ7H-703" value="13" style="text;html=1;align=center;verticalAlign=middle;resizable=0;points=[];autosize=1;strokeColor=none;fillColor=none;fontSize=18;fontFamily=Verdana;" vertex="1" parent="1">
          <mxGeometry x="807.5" y="2480" width="50" height="40" as="geometry" />
        </mxCell>
        <mxCell id="ugibJ8a83vaI0rzTOZ7H-704" value="23" style="text;html=1;align=center;verticalAlign=middle;resizable=0;points=[];autosize=1;strokeColor=none;fillColor=none;fontSize=18;fontFamily=Verdana;" vertex="1" parent="1">
          <mxGeometry x="807.5" y="2330" width="50" height="40" as="geometry" />
        </mxCell>
        <mxCell id="ugibJ8a83vaI0rzTOZ7H-705" value="U" style="ellipse;whiteSpace=wrap;html=1;aspect=fixed;fontSize=18;fontStyle=1" vertex="1" parent="1">
          <mxGeometry x="792.5" y="2590" width="50" height="50" as="geometry" />
        </mxCell>
        <mxCell id="ugibJ8a83vaI0rzTOZ7H-706" style="edgeStyle=orthogonalEdgeStyle;rounded=0;orthogonalLoop=1;jettySize=auto;html=1;entryX=0.5;entryY=0;entryDx=0;entryDy=0;fontFamily=Verdana;fontSize=18;exitX=0.5;exitY=1;exitDx=0;exitDy=0;" edge="1" parent="1" source="ugibJ8a83vaI0rzTOZ7H-702" target="ugibJ8a83vaI0rzTOZ7H-705">
          <mxGeometry relative="1" as="geometry">
            <mxPoint x="817.5" y="2570" as="sourcePoint" />
            <mxPoint x="817.5" y="2600" as="targetPoint" />
          </mxGeometry>
        </mxCell>
        <mxCell id="ugibJ8a83vaI0rzTOZ7H-707" value="9" style="text;html=1;align=center;verticalAlign=middle;resizable=0;points=[];autosize=1;strokeColor=none;fillColor=none;fontSize=18;fontFamily=Verdana;" vertex="1" parent="1">
          <mxGeometry x="815" y="2555" width="30" height="40" as="geometry" />
        </mxCell>
        <mxCell id="ugibJ8a83vaI0rzTOZ7H-708" style="edgeStyle=orthogonalEdgeStyle;rounded=0;orthogonalLoop=1;jettySize=auto;html=1;entryX=0.5;entryY=0;entryDx=0;entryDy=0;fontFamily=Verdana;fontSize=18;" edge="1" parent="1" target="ugibJ8a83vaI0rzTOZ7H-709">
          <mxGeometry relative="1" as="geometry">
            <mxPoint x="818" y="2640" as="sourcePoint" />
          </mxGeometry>
        </mxCell>
        <mxCell id="ugibJ8a83vaI0rzTOZ7H-709" value="T" style="ellipse;whiteSpace=wrap;html=1;aspect=fixed;fontSize=18;fontStyle=1" vertex="1" parent="1">
          <mxGeometry x="792.5" y="2670" width="50" height="50" as="geometry" />
        </mxCell>
        <mxCell id="ugibJ8a83vaI0rzTOZ7H-710" value="7" style="text;html=1;align=center;verticalAlign=middle;resizable=0;points=[];autosize=1;strokeColor=none;fillColor=none;fontSize=18;fontFamily=Verdana;" vertex="1" parent="1">
          <mxGeometry x="820" y="2630" width="30" height="40" as="geometry" />
        </mxCell>
        <mxCell id="ugibJ8a83vaI0rzTOZ7H-841" style="edgeStyle=orthogonalEdgeStyle;rounded=0;orthogonalLoop=1;jettySize=auto;html=1;entryX=0.5;entryY=0;entryDx=0;entryDy=0;fontSize=18;" edge="1" parent="1" source="ugibJ8a83vaI0rzTOZ7H-711" target="ugibJ8a83vaI0rzTOZ7H-840">
          <mxGeometry relative="1" as="geometry" />
        </mxCell>
        <mxCell id="ugibJ8a83vaI0rzTOZ7H-711" value="A" style="ellipse;whiteSpace=wrap;html=1;aspect=fixed;fontSize=18;fontStyle=1" vertex="1" parent="1">
          <mxGeometry x="715" y="2780" width="50" height="50" as="geometry" />
        </mxCell>
        <mxCell id="ugibJ8a83vaI0rzTOZ7H-712" style="edgeStyle=orthogonalEdgeStyle;rounded=0;orthogonalLoop=1;jettySize=auto;html=1;entryX=0.5;entryY=0;entryDx=0;entryDy=0;fontFamily=Verdana;fontSize=18;exitX=0.5;exitY=1;exitDx=0;exitDy=0;" edge="1" parent="1" source="ugibJ8a83vaI0rzTOZ7H-709" target="ugibJ8a83vaI0rzTOZ7H-711">
          <mxGeometry relative="1" as="geometry">
            <mxPoint x="817.5" y="2720" as="sourcePoint" />
            <mxPoint x="817.5" y="2750" as="targetPoint" />
            <Array as="points">
              <mxPoint x="818" y="2750" />
              <mxPoint x="740" y="2750" />
            </Array>
          </mxGeometry>
        </mxCell>
        <mxCell id="ugibJ8a83vaI0rzTOZ7H-713" value="6" style="text;html=1;align=center;verticalAlign=middle;resizable=0;points=[];autosize=1;strokeColor=none;fillColor=none;fontSize=18;fontFamily=Verdana;" vertex="1" parent="1">
          <mxGeometry x="735" y="2715" width="30" height="40" as="geometry" />
        </mxCell>
        <mxCell id="ugibJ8a83vaI0rzTOZ7H-744" style="edgeStyle=orthogonalEdgeStyle;rounded=0;orthogonalLoop=1;jettySize=auto;html=1;fontFamily=Verdana;fontSize=18;" edge="1" parent="1" target="ugibJ8a83vaI0rzTOZ7H-745">
          <mxGeometry relative="1" as="geometry">
            <mxPoint x="1060" y="2250" as="sourcePoint" />
          </mxGeometry>
        </mxCell>
        <mxCell id="ugibJ8a83vaI0rzTOZ7H-745" value="L" style="ellipse;whiteSpace=wrap;html=1;aspect=fixed;fontSize=18;fontStyle=1" vertex="1" parent="1">
          <mxGeometry x="1035" y="2290" width="50" height="50" as="geometry" />
        </mxCell>
        <mxCell id="ugibJ8a83vaI0rzTOZ7H-746" value="29" style="text;html=1;align=center;verticalAlign=middle;resizable=0;points=[];autosize=1;strokeColor=none;fillColor=none;fontSize=18;fontFamily=Verdana;" vertex="1" parent="1">
          <mxGeometry x="1050" y="2255" width="50" height="40" as="geometry" />
        </mxCell>
        <mxCell id="ugibJ8a83vaI0rzTOZ7H-747" style="edgeStyle=orthogonalEdgeStyle;rounded=0;orthogonalLoop=1;jettySize=auto;html=1;entryX=0.5;entryY=0;entryDx=0;entryDy=0;fontFamily=Verdana;fontSize=18;" edge="1" parent="1" target="ugibJ8a83vaI0rzTOZ7H-749">
          <mxGeometry relative="1" as="geometry">
            <mxPoint x="1060" y="2340" as="sourcePoint" />
          </mxGeometry>
        </mxCell>
        <mxCell id="ugibJ8a83vaI0rzTOZ7H-748" style="edgeStyle=orthogonalEdgeStyle;rounded=0;orthogonalLoop=1;jettySize=auto;html=1;entryX=0.5;entryY=0;entryDx=0;entryDy=0;fontFamily=Verdana;fontSize=18;" edge="1" parent="1" source="ugibJ8a83vaI0rzTOZ7H-749" target="ugibJ8a83vaI0rzTOZ7H-750">
          <mxGeometry relative="1" as="geometry" />
        </mxCell>
        <mxCell id="ugibJ8a83vaI0rzTOZ7H-749" value="V" style="ellipse;whiteSpace=wrap;html=1;aspect=fixed;fontSize=18;fontStyle=1" vertex="1" parent="1">
          <mxGeometry x="1035" y="2365" width="50" height="50" as="geometry" />
        </mxCell>
        <mxCell id="ugibJ8a83vaI0rzTOZ7H-750" value="H" style="ellipse;whiteSpace=wrap;html=1;aspect=fixed;fontSize=18;fontStyle=1" vertex="1" parent="1">
          <mxGeometry x="1035" y="2440" width="50" height="50" as="geometry" />
        </mxCell>
        <mxCell id="ugibJ8a83vaI0rzTOZ7H-751" value="12" style="text;html=1;align=center;verticalAlign=middle;resizable=0;points=[];autosize=1;strokeColor=none;fillColor=none;fontSize=18;fontFamily=Verdana;" vertex="1" parent="1">
          <mxGeometry x="1050" y="2410" width="50" height="40" as="geometry" />
        </mxCell>
        <mxCell id="ugibJ8a83vaI0rzTOZ7H-752" value="16" style="text;html=1;align=center;verticalAlign=middle;resizable=0;points=[];autosize=1;strokeColor=none;fillColor=none;fontSize=18;fontFamily=Verdana;" vertex="1" parent="1">
          <mxGeometry x="1050" y="2330" width="50" height="40" as="geometry" />
        </mxCell>
        <mxCell id="ugibJ8a83vaI0rzTOZ7H-846" style="edgeStyle=orthogonalEdgeStyle;rounded=0;orthogonalLoop=1;jettySize=auto;html=1;entryX=0.5;entryY=0;entryDx=0;entryDy=0;" edge="1" parent="1" source="ugibJ8a83vaI0rzTOZ7H-753" target="ugibJ8a83vaI0rzTOZ7H-757">
          <mxGeometry relative="1" as="geometry">
            <Array as="points">
              <mxPoint x="1060" y="2590" />
              <mxPoint x="1140" y="2590" />
            </Array>
          </mxGeometry>
        </mxCell>
        <mxCell id="ugibJ8a83vaI0rzTOZ7H-753" value="U" style="ellipse;whiteSpace=wrap;html=1;aspect=fixed;fontSize=18;fontStyle=1" vertex="1" parent="1">
          <mxGeometry x="1035" y="2515" width="50" height="50" as="geometry" />
        </mxCell>
        <mxCell id="ugibJ8a83vaI0rzTOZ7H-754" style="edgeStyle=orthogonalEdgeStyle;rounded=0;orthogonalLoop=1;jettySize=auto;html=1;entryX=0.5;entryY=0;entryDx=0;entryDy=0;fontFamily=Verdana;fontSize=18;exitX=0.5;exitY=1;exitDx=0;exitDy=0;" edge="1" parent="1" source="ugibJ8a83vaI0rzTOZ7H-750" target="ugibJ8a83vaI0rzTOZ7H-753">
          <mxGeometry relative="1" as="geometry">
            <mxPoint x="1060" y="2500" as="sourcePoint" />
            <mxPoint x="1060" y="2530" as="targetPoint" />
          </mxGeometry>
        </mxCell>
        <mxCell id="ugibJ8a83vaI0rzTOZ7H-755" value="9" style="text;html=1;align=center;verticalAlign=middle;resizable=0;points=[];autosize=1;strokeColor=none;fillColor=none;fontSize=18;fontFamily=Verdana;" vertex="1" parent="1">
          <mxGeometry x="1055" y="2480" width="30" height="40" as="geometry" />
        </mxCell>
        <mxCell id="ugibJ8a83vaI0rzTOZ7H-757" value="U" style="ellipse;whiteSpace=wrap;html=1;aspect=fixed;fontSize=18;fontStyle=1" vertex="1" parent="1">
          <mxGeometry x="1115" y="2640" width="50" height="50" as="geometry" />
        </mxCell>
        <mxCell id="ugibJ8a83vaI0rzTOZ7H-762" style="edgeStyle=orthogonalEdgeStyle;rounded=0;orthogonalLoop=1;jettySize=auto;html=1;fontFamily=Verdana;fontSize=18;" edge="1" parent="1" target="ugibJ8a83vaI0rzTOZ7H-763">
          <mxGeometry relative="1" as="geometry">
            <mxPoint x="1220" y="2250" as="sourcePoint" />
          </mxGeometry>
        </mxCell>
        <mxCell id="ugibJ8a83vaI0rzTOZ7H-763" value="D" style="ellipse;whiteSpace=wrap;html=1;aspect=fixed;fontSize=18;fontStyle=1" vertex="1" parent="1">
          <mxGeometry x="1195" y="2290" width="50" height="50" as="geometry" />
        </mxCell>
        <mxCell id="ugibJ8a83vaI0rzTOZ7H-764" value="30" style="text;html=1;align=center;verticalAlign=middle;resizable=0;points=[];autosize=1;strokeColor=none;fillColor=none;fontSize=18;fontFamily=Verdana;" vertex="1" parent="1">
          <mxGeometry x="1210" y="2255" width="50" height="40" as="geometry" />
        </mxCell>
        <mxCell id="ugibJ8a83vaI0rzTOZ7H-765" style="edgeStyle=orthogonalEdgeStyle;rounded=0;orthogonalLoop=1;jettySize=auto;html=1;entryX=0.5;entryY=0;entryDx=0;entryDy=0;fontFamily=Verdana;fontSize=18;" edge="1" parent="1" target="ugibJ8a83vaI0rzTOZ7H-767">
          <mxGeometry relative="1" as="geometry">
            <mxPoint x="1220" y="2340" as="sourcePoint" />
          </mxGeometry>
        </mxCell>
        <mxCell id="ugibJ8a83vaI0rzTOZ7H-766" style="edgeStyle=orthogonalEdgeStyle;rounded=0;orthogonalLoop=1;jettySize=auto;html=1;entryX=0.5;entryY=0;entryDx=0;entryDy=0;fontFamily=Verdana;fontSize=18;" edge="1" parent="1" source="ugibJ8a83vaI0rzTOZ7H-767" target="ugibJ8a83vaI0rzTOZ7H-768">
          <mxGeometry relative="1" as="geometry" />
        </mxCell>
        <mxCell id="ugibJ8a83vaI0rzTOZ7H-767" value="I" style="ellipse;whiteSpace=wrap;html=1;aspect=fixed;fontSize=18;fontStyle=1" vertex="1" parent="1">
          <mxGeometry x="1195" y="2365" width="50" height="50" as="geometry" />
        </mxCell>
        <mxCell id="ugibJ8a83vaI0rzTOZ7H-768" value="R" style="ellipse;whiteSpace=wrap;html=1;aspect=fixed;fontSize=18;fontStyle=1" vertex="1" parent="1">
          <mxGeometry x="1195" y="2440" width="50" height="50" as="geometry" />
        </mxCell>
        <mxCell id="ugibJ8a83vaI0rzTOZ7H-769" value="19" style="text;html=1;align=center;verticalAlign=middle;resizable=0;points=[];autosize=1;strokeColor=none;fillColor=none;fontSize=18;fontFamily=Verdana;" vertex="1" parent="1">
          <mxGeometry x="1210" y="2410" width="50" height="40" as="geometry" />
        </mxCell>
        <mxCell id="ugibJ8a83vaI0rzTOZ7H-770" value="23" style="text;html=1;align=center;verticalAlign=middle;resizable=0;points=[];autosize=1;strokeColor=none;fillColor=none;fontSize=18;fontFamily=Verdana;" vertex="1" parent="1">
          <mxGeometry x="1210" y="2330" width="50" height="40" as="geometry" />
        </mxCell>
        <mxCell id="ugibJ8a83vaI0rzTOZ7H-845" style="edgeStyle=orthogonalEdgeStyle;rounded=0;orthogonalLoop=1;jettySize=auto;html=1;" edge="1" parent="1" source="ugibJ8a83vaI0rzTOZ7H-771" target="ugibJ8a83vaI0rzTOZ7H-757">
          <mxGeometry relative="1" as="geometry">
            <Array as="points">
              <mxPoint x="1220" y="2590" />
              <mxPoint x="1140" y="2590" />
            </Array>
          </mxGeometry>
        </mxCell>
        <mxCell id="ugibJ8a83vaI0rzTOZ7H-771" value="H" style="ellipse;whiteSpace=wrap;html=1;aspect=fixed;fontSize=18;fontStyle=1" vertex="1" parent="1">
          <mxGeometry x="1195" y="2515" width="50" height="50" as="geometry" />
        </mxCell>
        <mxCell id="ugibJ8a83vaI0rzTOZ7H-772" style="edgeStyle=orthogonalEdgeStyle;rounded=0;orthogonalLoop=1;jettySize=auto;html=1;entryX=0.5;entryY=0;entryDx=0;entryDy=0;fontFamily=Verdana;fontSize=18;exitX=0.5;exitY=1;exitDx=0;exitDy=0;" edge="1" parent="1" source="ugibJ8a83vaI0rzTOZ7H-768" target="ugibJ8a83vaI0rzTOZ7H-771">
          <mxGeometry relative="1" as="geometry">
            <mxPoint x="1220" y="2500" as="sourcePoint" />
            <mxPoint x="1220" y="2530" as="targetPoint" />
          </mxGeometry>
        </mxCell>
        <mxCell id="ugibJ8a83vaI0rzTOZ7H-773" value="13" style="text;html=1;align=center;verticalAlign=middle;resizable=0;points=[];autosize=1;strokeColor=none;fillColor=none;fontSize=18;fontFamily=Verdana;" vertex="1" parent="1">
          <mxGeometry x="1205" y="2480" width="50" height="40" as="geometry" />
        </mxCell>
        <mxCell id="ugibJ8a83vaI0rzTOZ7H-798" style="edgeStyle=orthogonalEdgeStyle;rounded=0;orthogonalLoop=1;jettySize=auto;html=1;fontFamily=Verdana;fontSize=18;" edge="1" parent="1" target="ugibJ8a83vaI0rzTOZ7H-799">
          <mxGeometry relative="1" as="geometry">
            <mxPoint x="1380" y="2250" as="sourcePoint" />
          </mxGeometry>
        </mxCell>
        <mxCell id="ugibJ8a83vaI0rzTOZ7H-799" value="D" style="ellipse;whiteSpace=wrap;html=1;aspect=fixed;fontSize=18;fontStyle=1" vertex="1" parent="1">
          <mxGeometry x="1355" y="2290" width="50" height="50" as="geometry" />
        </mxCell>
        <mxCell id="ugibJ8a83vaI0rzTOZ7H-800" value="30" style="text;html=1;align=center;verticalAlign=middle;resizable=0;points=[];autosize=1;strokeColor=none;fillColor=none;fontSize=18;fontFamily=Verdana;" vertex="1" parent="1">
          <mxGeometry x="1370" y="2255" width="50" height="40" as="geometry" />
        </mxCell>
        <mxCell id="ugibJ8a83vaI0rzTOZ7H-802" style="edgeStyle=orthogonalEdgeStyle;rounded=0;orthogonalLoop=1;jettySize=auto;html=1;entryX=0.5;entryY=0;entryDx=0;entryDy=0;fontFamily=Verdana;fontSize=18;" edge="1" parent="1" source="ugibJ8a83vaI0rzTOZ7H-803" target="ugibJ8a83vaI0rzTOZ7H-804">
          <mxGeometry relative="1" as="geometry" />
        </mxCell>
        <mxCell id="ugibJ8a83vaI0rzTOZ7H-803" value="R" style="ellipse;whiteSpace=wrap;html=1;aspect=fixed;fontSize=18;fontStyle=1" vertex="1" parent="1">
          <mxGeometry x="1435" y="2422.5" width="50" height="50" as="geometry" />
        </mxCell>
        <mxCell id="ugibJ8a83vaI0rzTOZ7H-804" value="H" style="ellipse;whiteSpace=wrap;html=1;aspect=fixed;fontSize=18;fontStyle=1" vertex="1" parent="1">
          <mxGeometry x="1435" y="2497.5" width="50" height="50" as="geometry" />
        </mxCell>
        <mxCell id="ugibJ8a83vaI0rzTOZ7H-805" value="13" style="text;html=1;align=center;verticalAlign=middle;resizable=0;points=[];autosize=1;strokeColor=none;fillColor=none;fontSize=18;fontFamily=Verdana;" vertex="1" parent="1">
          <mxGeometry x="1450" y="2467.5" width="50" height="40" as="geometry" />
        </mxCell>
        <mxCell id="ugibJ8a83vaI0rzTOZ7H-807" value="U" style="ellipse;whiteSpace=wrap;html=1;aspect=fixed;fontSize=18;fontStyle=1" vertex="1" parent="1">
          <mxGeometry x="1435" y="2572.5" width="50" height="50" as="geometry" />
        </mxCell>
        <mxCell id="ugibJ8a83vaI0rzTOZ7H-808" style="edgeStyle=orthogonalEdgeStyle;rounded=0;orthogonalLoop=1;jettySize=auto;html=1;entryX=0.5;entryY=0;entryDx=0;entryDy=0;fontFamily=Verdana;fontSize=18;exitX=0.5;exitY=1;exitDx=0;exitDy=0;" edge="1" parent="1" source="ugibJ8a83vaI0rzTOZ7H-804" target="ugibJ8a83vaI0rzTOZ7H-807">
          <mxGeometry relative="1" as="geometry">
            <mxPoint x="1460" y="2557.5" as="sourcePoint" />
            <mxPoint x="1460" y="2587.5" as="targetPoint" />
          </mxGeometry>
        </mxCell>
        <mxCell id="ugibJ8a83vaI0rzTOZ7H-809" value="9" style="text;html=1;align=center;verticalAlign=middle;resizable=0;points=[];autosize=1;strokeColor=none;fillColor=none;fontSize=18;fontFamily=Verdana;" vertex="1" parent="1">
          <mxGeometry x="1455" y="2537.5" width="30" height="40" as="geometry" />
        </mxCell>
        <mxCell id="ugibJ8a83vaI0rzTOZ7H-810" style="edgeStyle=orthogonalEdgeStyle;rounded=0;orthogonalLoop=1;jettySize=auto;html=1;entryX=0.5;entryY=0;entryDx=0;entryDy=0;fontFamily=Verdana;fontSize=18;" edge="1" parent="1" target="ugibJ8a83vaI0rzTOZ7H-811">
          <mxGeometry relative="1" as="geometry">
            <mxPoint x="1460" y="2622.5" as="sourcePoint" />
          </mxGeometry>
        </mxCell>
        <mxCell id="ugibJ8a83vaI0rzTOZ7H-811" value="T" style="ellipse;whiteSpace=wrap;html=1;aspect=fixed;fontSize=18;fontStyle=1" vertex="1" parent="1">
          <mxGeometry x="1435" y="2647.5" width="50" height="50" as="geometry" />
        </mxCell>
        <mxCell id="ugibJ8a83vaI0rzTOZ7H-812" value="7" style="text;html=1;align=center;verticalAlign=middle;resizable=0;points=[];autosize=1;strokeColor=none;fillColor=none;fontSize=18;fontFamily=Verdana;" vertex="1" parent="1">
          <mxGeometry x="1460" y="2617.5" width="30" height="40" as="geometry" />
        </mxCell>
        <mxCell id="ugibJ8a83vaI0rzTOZ7H-813" value="A" style="ellipse;whiteSpace=wrap;html=1;aspect=fixed;fontSize=18;fontStyle=1" vertex="1" parent="1">
          <mxGeometry x="1435" y="2722.5" width="50" height="50" as="geometry" />
        </mxCell>
        <mxCell id="ugibJ8a83vaI0rzTOZ7H-814" style="edgeStyle=orthogonalEdgeStyle;rounded=0;orthogonalLoop=1;jettySize=auto;html=1;entryX=0.5;entryY=0;entryDx=0;entryDy=0;fontFamily=Verdana;fontSize=18;exitX=0.5;exitY=1;exitDx=0;exitDy=0;" edge="1" parent="1" source="ugibJ8a83vaI0rzTOZ7H-811" target="ugibJ8a83vaI0rzTOZ7H-813">
          <mxGeometry relative="1" as="geometry">
            <mxPoint x="1460" y="2707.5" as="sourcePoint" />
            <mxPoint x="1460" y="2737.5" as="targetPoint" />
          </mxGeometry>
        </mxCell>
        <mxCell id="ugibJ8a83vaI0rzTOZ7H-815" value="4" style="text;html=1;align=center;verticalAlign=middle;resizable=0;points=[];autosize=1;strokeColor=none;fillColor=none;fontSize=18;fontFamily=Verdana;" vertex="1" parent="1">
          <mxGeometry x="1455" y="2687.5" width="30" height="40" as="geometry" />
        </mxCell>
        <mxCell id="ugibJ8a83vaI0rzTOZ7H-834" value="R" style="ellipse;whiteSpace=wrap;html=1;aspect=fixed;fontSize=18;fontStyle=1" vertex="1" parent="1">
          <mxGeometry x="792.5" y="2440" width="50" height="50" as="geometry" />
        </mxCell>
        <mxCell id="ugibJ8a83vaI0rzTOZ7H-837" value="19" style="text;html=1;align=center;verticalAlign=middle;resizable=0;points=[];autosize=1;strokeColor=none;fillColor=none;fontSize=18;" vertex="1" parent="1">
          <mxGeometry x="810" y="2405" width="40" height="40" as="geometry" />
        </mxCell>
        <mxCell id="ugibJ8a83vaI0rzTOZ7H-840" value="H" style="ellipse;whiteSpace=wrap;html=1;aspect=fixed;fontSize=18;fontStyle=1" vertex="1" parent="1">
          <mxGeometry x="715" y="2870" width="50" height="50" as="geometry" />
        </mxCell>
        <mxCell id="ugibJ8a83vaI0rzTOZ7H-844" value="14" style="text;html=1;align=center;verticalAlign=middle;resizable=0;points=[];autosize=1;strokeColor=none;fillColor=none;fontSize=18;" vertex="1" parent="1">
          <mxGeometry x="735" y="2835" width="40" height="40" as="geometry" />
        </mxCell>
        <mxCell id="ugibJ8a83vaI0rzTOZ7H-848" value="10" style="text;html=1;align=center;verticalAlign=middle;resizable=0;points=[];autosize=1;strokeColor=none;fillColor=none;fontSize=18;" vertex="1" parent="1">
          <mxGeometry x="1105" y="2560" width="40" height="40" as="geometry" />
        </mxCell>
        <mxCell id="ugibJ8a83vaI0rzTOZ7H-849" style="edgeStyle=orthogonalEdgeStyle;rounded=0;orthogonalLoop=1;jettySize=auto;html=1;entryX=0.5;entryY=0;entryDx=0;entryDy=0;fontFamily=Verdana;fontSize=18;" edge="1" parent="1" target="ugibJ8a83vaI0rzTOZ7H-850">
          <mxGeometry relative="1" as="geometry">
            <mxPoint x="1380" y="2340" as="sourcePoint" />
          </mxGeometry>
        </mxCell>
        <mxCell id="ugibJ8a83vaI0rzTOZ7H-857" style="edgeStyle=orthogonalEdgeStyle;rounded=0;orthogonalLoop=1;jettySize=auto;html=1;" edge="1" parent="1" source="ugibJ8a83vaI0rzTOZ7H-850" target="ugibJ8a83vaI0rzTOZ7H-803">
          <mxGeometry relative="1" as="geometry">
            <Array as="points">
              <mxPoint x="1460" y="2410" />
            </Array>
          </mxGeometry>
        </mxCell>
        <mxCell id="ugibJ8a83vaI0rzTOZ7H-850" value="I" style="ellipse;whiteSpace=wrap;html=1;aspect=fixed;fontSize=18;fontStyle=1" vertex="1" parent="1">
          <mxGeometry x="1355" y="2365" width="50" height="50" as="geometry" />
        </mxCell>
        <mxCell id="ugibJ8a83vaI0rzTOZ7H-851" value="23" style="text;html=1;align=center;verticalAlign=middle;resizable=0;points=[];autosize=1;strokeColor=none;fillColor=none;fontSize=18;fontFamily=Verdana;" vertex="1" parent="1">
          <mxGeometry x="1370" y="2330" width="50" height="40" as="geometry" />
        </mxCell>
        <mxCell id="ugibJ8a83vaI0rzTOZ7H-852" style="edgeStyle=orthogonalEdgeStyle;rounded=0;orthogonalLoop=1;jettySize=auto;html=1;fontFamily=Verdana;fontSize=18;" edge="1" parent="1" target="ugibJ8a83vaI0rzTOZ7H-853">
          <mxGeometry relative="1" as="geometry">
            <mxPoint x="1540" y="2250" as="sourcePoint" />
          </mxGeometry>
        </mxCell>
        <mxCell id="ugibJ8a83vaI0rzTOZ7H-853" value="D" style="ellipse;whiteSpace=wrap;html=1;aspect=fixed;fontSize=18;fontStyle=1" vertex="1" parent="1">
          <mxGeometry x="1515" y="2290" width="50" height="50" as="geometry" />
        </mxCell>
        <mxCell id="ugibJ8a83vaI0rzTOZ7H-854" style="edgeStyle=orthogonalEdgeStyle;rounded=0;orthogonalLoop=1;jettySize=auto;html=1;entryX=0.5;entryY=0;entryDx=0;entryDy=0;fontFamily=Verdana;fontSize=18;" edge="1" parent="1" target="ugibJ8a83vaI0rzTOZ7H-855">
          <mxGeometry relative="1" as="geometry">
            <mxPoint x="1540" y="2340" as="sourcePoint" />
          </mxGeometry>
        </mxCell>
        <mxCell id="ugibJ8a83vaI0rzTOZ7H-858" style="edgeStyle=orthogonalEdgeStyle;rounded=0;orthogonalLoop=1;jettySize=auto;html=1;entryX=0.5;entryY=0;entryDx=0;entryDy=0;" edge="1" parent="1" source="ugibJ8a83vaI0rzTOZ7H-855" target="ugibJ8a83vaI0rzTOZ7H-803">
          <mxGeometry relative="1" as="geometry">
            <Array as="points">
              <mxPoint x="1460" y="2410" />
            </Array>
          </mxGeometry>
        </mxCell>
        <mxCell id="ugibJ8a83vaI0rzTOZ7H-855" value="I" style="ellipse;whiteSpace=wrap;html=1;aspect=fixed;fontSize=18;fontStyle=1" vertex="1" parent="1">
          <mxGeometry x="1515" y="2365" width="50" height="50" as="geometry" />
        </mxCell>
        <mxCell id="ugibJ8a83vaI0rzTOZ7H-859" value="22" style="text;html=1;align=center;verticalAlign=middle;resizable=0;points=[];autosize=1;strokeColor=none;fillColor=none;" vertex="1" parent="1">
          <mxGeometry x="1455" y="2375" width="40" height="30" as="geometry" />
        </mxCell>
        <mxCell id="ugibJ8a83vaI0rzTOZ7H-860" value="30" style="text;html=1;align=center;verticalAlign=middle;resizable=0;points=[];autosize=1;strokeColor=none;fillColor=none;" vertex="1" parent="1">
          <mxGeometry x="1535" y="2260" width="40" height="30" as="geometry" />
        </mxCell>
        <mxCell id="ugibJ8a83vaI0rzTOZ7H-861" value="23" style="text;html=1;align=center;verticalAlign=middle;resizable=0;points=[];autosize=1;strokeColor=none;fillColor=none;" vertex="1" parent="1">
          <mxGeometry x="1535" y="2340" width="40" height="30" as="geometry" />
        </mxCell>
        <mxCell id="ugibJ8a83vaI0rzTOZ7H-1018" style="edgeStyle=orthogonalEdgeStyle;rounded=0;orthogonalLoop=1;jettySize=auto;html=1;" edge="1" parent="1" source="ugibJ8a83vaI0rzTOZ7H-864" target="ugibJ8a83vaI0rzTOZ7H-1017">
          <mxGeometry relative="1" as="geometry">
            <Array as="points">
              <mxPoint x="162.5" y="3210" />
              <mxPoint x="240.5" y="3210" />
            </Array>
          </mxGeometry>
        </mxCell>
        <mxCell id="ugibJ8a83vaI0rzTOZ7H-864" value="T" style="ellipse;whiteSpace=wrap;html=1;aspect=fixed;fontSize=18;fontStyle=1" vertex="1" parent="1">
          <mxGeometry x="137.5" y="3050" width="50" height="50" as="geometry" />
        </mxCell>
        <mxCell id="ugibJ8a83vaI0rzTOZ7H-868" value="/" style="ellipse;whiteSpace=wrap;html=1;aspect=fixed;fontSize=18;fontStyle=1" vertex="1" parent="1">
          <mxGeometry x="217.5" y="3050" width="50" height="50" as="geometry" />
        </mxCell>
        <mxCell id="ugibJ8a83vaI0rzTOZ7H-878" value="*" style="ellipse;whiteSpace=wrap;html=1;aspect=fixed;fontSize=18;fontStyle=1" vertex="1" parent="1">
          <mxGeometry x="377.5" y="3050" width="50" height="50" as="geometry" />
        </mxCell>
        <mxCell id="ugibJ8a83vaI0rzTOZ7H-1037" style="edgeStyle=orthogonalEdgeStyle;rounded=0;orthogonalLoop=1;jettySize=auto;html=1;entryX=0.5;entryY=0;entryDx=0;entryDy=0;" edge="1" parent="1" source="ugibJ8a83vaI0rzTOZ7H-883" target="ugibJ8a83vaI0rzTOZ7H-1036">
          <mxGeometry relative="1" as="geometry" />
        </mxCell>
        <mxCell id="ugibJ8a83vaI0rzTOZ7H-883" value="," style="ellipse;whiteSpace=wrap;html=1;aspect=fixed;fontSize=18;fontStyle=1" vertex="1" parent="1">
          <mxGeometry x="530" y="3050" width="50" height="50" as="geometry" />
        </mxCell>
        <mxCell id="ugibJ8a83vaI0rzTOZ7H-1028" style="edgeStyle=orthogonalEdgeStyle;rounded=0;orthogonalLoop=1;jettySize=auto;html=1;entryX=0.5;entryY=0;entryDx=0;entryDy=0;" edge="1" parent="1" source="ugibJ8a83vaI0rzTOZ7H-938" target="ugibJ8a83vaI0rzTOZ7H-1025">
          <mxGeometry relative="1" as="geometry">
            <Array as="points">
              <mxPoint x="477.5" y="3300" />
              <mxPoint x="402.5" y="3300" />
            </Array>
          </mxGeometry>
        </mxCell>
        <mxCell id="ugibJ8a83vaI0rzTOZ7H-938" value="U" style="ellipse;whiteSpace=wrap;html=1;aspect=fixed;fontSize=18;fontStyle=1" vertex="1" parent="1">
          <mxGeometry x="452.5" y="3050" width="50" height="50" as="geometry" />
        </mxCell>
        <mxCell id="ugibJ8a83vaI0rzTOZ7H-1039" style="edgeStyle=orthogonalEdgeStyle;rounded=0;orthogonalLoop=1;jettySize=auto;html=1;entryX=0.5;entryY=0;entryDx=0;entryDy=0;" edge="1" parent="1" source="ugibJ8a83vaI0rzTOZ7H-965" target="ugibJ8a83vaI0rzTOZ7H-1036">
          <mxGeometry relative="1" as="geometry">
            <Array as="points">
              <mxPoint x="629.5" y="3540" />
              <mxPoint x="555.5" y="3540" />
            </Array>
          </mxGeometry>
        </mxCell>
        <mxCell id="ugibJ8a83vaI0rzTOZ7H-965" value="A" style="ellipse;whiteSpace=wrap;html=1;aspect=fixed;fontSize=18;fontStyle=1" vertex="1" parent="1">
          <mxGeometry x="605" y="3050" width="50" height="50" as="geometry" />
        </mxCell>
        <mxCell id="ugibJ8a83vaI0rzTOZ7H-986" style="edgeStyle=orthogonalEdgeStyle;rounded=0;orthogonalLoop=1;jettySize=auto;html=1;entryX=0.5;entryY=0;entryDx=0;entryDy=0;" edge="1" parent="1" source="ugibJ8a83vaI0rzTOZ7H-970" target="ugibJ8a83vaI0rzTOZ7H-985">
          <mxGeometry relative="1" as="geometry" />
        </mxCell>
        <mxCell id="ugibJ8a83vaI0rzTOZ7H-970" value="H" style="ellipse;whiteSpace=wrap;html=1;aspect=fixed;fontSize=18;fontStyle=1" vertex="1" parent="1">
          <mxGeometry x="297.5" y="3050" width="50" height="50" as="geometry" />
        </mxCell>
        <mxCell id="ugibJ8a83vaI0rzTOZ7H-1020" style="edgeStyle=orthogonalEdgeStyle;rounded=0;orthogonalLoop=1;jettySize=auto;html=1;entryX=0.5;entryY=0;entryDx=0;entryDy=0;" edge="1" parent="1" source="ugibJ8a83vaI0rzTOZ7H-985" target="ugibJ8a83vaI0rzTOZ7H-1017">
          <mxGeometry relative="1" as="geometry">
            <Array as="points">
              <mxPoint x="322.5" y="3210" />
              <mxPoint x="240.5" y="3210" />
            </Array>
          </mxGeometry>
        </mxCell>
        <mxCell id="ugibJ8a83vaI0rzTOZ7H-985" value="U" style="ellipse;whiteSpace=wrap;html=1;aspect=fixed;fontSize=18;fontStyle=1" vertex="1" parent="1">
          <mxGeometry x="297.5" y="3130" width="50" height="50" as="geometry" />
        </mxCell>
        <mxCell id="ugibJ8a83vaI0rzTOZ7H-987" value="9" style="text;html=1;align=center;verticalAlign=middle;resizable=0;points=[];autosize=1;strokeColor=none;fillColor=none;" vertex="1" parent="1">
          <mxGeometry x="322.5" y="3100" width="30" height="30" as="geometry" />
        </mxCell>
        <mxCell id="ugibJ8a83vaI0rzTOZ7H-988" style="edgeStyle=orthogonalEdgeStyle;rounded=0;orthogonalLoop=1;jettySize=auto;html=1;entryX=0.5;entryY=0;entryDx=0;entryDy=0;" edge="1" parent="1" target="ugibJ8a83vaI0rzTOZ7H-989">
          <mxGeometry relative="1" as="geometry">
            <mxPoint x="240" y="3100" as="sourcePoint" />
          </mxGeometry>
        </mxCell>
        <mxCell id="ugibJ8a83vaI0rzTOZ7H-1019" style="edgeStyle=orthogonalEdgeStyle;rounded=0;orthogonalLoop=1;jettySize=auto;html=1;entryX=0.5;entryY=0;entryDx=0;entryDy=0;" edge="1" parent="1" source="ugibJ8a83vaI0rzTOZ7H-989" target="ugibJ8a83vaI0rzTOZ7H-1017">
          <mxGeometry relative="1" as="geometry" />
        </mxCell>
        <mxCell id="ugibJ8a83vaI0rzTOZ7H-989" value="M" style="ellipse;whiteSpace=wrap;html=1;aspect=fixed;fontSize=18;fontStyle=1" vertex="1" parent="1">
          <mxGeometry x="215" y="3130" width="50" height="50" as="geometry" />
        </mxCell>
        <mxCell id="ugibJ8a83vaI0rzTOZ7H-990" value="28" style="text;html=1;align=center;verticalAlign=middle;resizable=0;points=[];autosize=1;strokeColor=none;fillColor=none;" vertex="1" parent="1">
          <mxGeometry x="235" y="3100" width="40" height="30" as="geometry" />
        </mxCell>
        <mxCell id="ugibJ8a83vaI0rzTOZ7H-1003" style="edgeStyle=orthogonalEdgeStyle;rounded=0;orthogonalLoop=1;jettySize=auto;html=1;entryX=0.5;entryY=0;entryDx=0;entryDy=0;" edge="1" parent="1" source="ugibJ8a83vaI0rzTOZ7H-993" target="ugibJ8a83vaI0rzTOZ7H-996">
          <mxGeometry relative="1" as="geometry">
            <Array as="points">
              <mxPoint x="340" y="2350" />
              <mxPoint x="260" y="2350" />
            </Array>
          </mxGeometry>
        </mxCell>
        <mxCell id="ugibJ8a83vaI0rzTOZ7H-993" value="T" style="ellipse;whiteSpace=wrap;html=1;aspect=fixed;fontSize=18;fontStyle=1" vertex="1" parent="1">
          <mxGeometry x="315" y="2280" width="50" height="50" as="geometry" />
        </mxCell>
        <mxCell id="ugibJ8a83vaI0rzTOZ7H-995" value="7" style="text;html=1;align=center;verticalAlign=middle;resizable=0;points=[];autosize=1;strokeColor=none;fillColor=none;" vertex="1" parent="1">
          <mxGeometry x="345" y="2250" width="30" height="30" as="geometry" />
        </mxCell>
        <mxCell id="ugibJ8a83vaI0rzTOZ7H-1008" style="edgeStyle=orthogonalEdgeStyle;rounded=0;orthogonalLoop=1;jettySize=auto;html=1;entryX=0.5;entryY=0;entryDx=0;entryDy=0;" edge="1" parent="1" source="ugibJ8a83vaI0rzTOZ7H-996" target="ugibJ8a83vaI0rzTOZ7H-1005">
          <mxGeometry relative="1" as="geometry" />
        </mxCell>
        <mxCell id="ugibJ8a83vaI0rzTOZ7H-996" value="A" style="ellipse;whiteSpace=wrap;html=1;aspect=fixed;fontSize=18;fontStyle=1" vertex="1" parent="1">
          <mxGeometry x="235" y="2372.5" width="50" height="50" as="geometry" />
        </mxCell>
        <mxCell id="ugibJ8a83vaI0rzTOZ7H-998" style="edgeStyle=orthogonalEdgeStyle;rounded=0;orthogonalLoop=1;jettySize=auto;html=1;entryX=0.5;entryY=0;entryDx=0;entryDy=0;" edge="1" parent="1" target="ugibJ8a83vaI0rzTOZ7H-999">
          <mxGeometry relative="1" as="geometry">
            <mxPoint x="260" y="2250" as="sourcePoint" />
          </mxGeometry>
        </mxCell>
        <mxCell id="ugibJ8a83vaI0rzTOZ7H-1002" style="edgeStyle=orthogonalEdgeStyle;rounded=0;orthogonalLoop=1;jettySize=auto;html=1;" edge="1" parent="1" source="ugibJ8a83vaI0rzTOZ7H-999">
          <mxGeometry relative="1" as="geometry">
            <mxPoint x="260" y="2370" as="targetPoint" />
          </mxGeometry>
        </mxCell>
        <mxCell id="ugibJ8a83vaI0rzTOZ7H-999" value="Z" style="ellipse;whiteSpace=wrap;html=1;aspect=fixed;fontSize=18;fontStyle=1" vertex="1" parent="1">
          <mxGeometry x="235" y="2280" width="50" height="50" as="geometry" />
        </mxCell>
        <mxCell id="ugibJ8a83vaI0rzTOZ7H-1000" value="7" style="text;html=1;align=center;verticalAlign=middle;resizable=0;points=[];autosize=1;strokeColor=none;fillColor=none;" vertex="1" parent="1">
          <mxGeometry x="265" y="2250" width="30" height="30" as="geometry" />
        </mxCell>
        <mxCell id="ugibJ8a83vaI0rzTOZ7H-1004" value="6" style="text;html=1;align=center;verticalAlign=middle;resizable=0;points=[];autosize=1;strokeColor=none;fillColor=none;" vertex="1" parent="1">
          <mxGeometry x="265" y="2345" width="30" height="30" as="geometry" />
        </mxCell>
        <mxCell id="ugibJ8a83vaI0rzTOZ7H-1005" value="H" style="ellipse;whiteSpace=wrap;html=1;aspect=fixed;fontSize=18;fontStyle=1" vertex="1" parent="1">
          <mxGeometry x="235" y="2472.5" width="50" height="50" as="geometry" />
        </mxCell>
        <mxCell id="ugibJ8a83vaI0rzTOZ7H-1009" value="14" style="text;html=1;align=center;verticalAlign=middle;resizable=0;points=[];autosize=1;strokeColor=none;fillColor=none;" vertex="1" parent="1">
          <mxGeometry x="255" y="2425" width="40" height="30" as="geometry" />
        </mxCell>
        <mxCell id="ugibJ8a83vaI0rzTOZ7H-1011" style="edgeStyle=orthogonalEdgeStyle;rounded=0;orthogonalLoop=1;jettySize=auto;html=1;entryX=0.5;entryY=0;entryDx=0;entryDy=0;" edge="1" parent="1" target="ugibJ8a83vaI0rzTOZ7H-1012">
          <mxGeometry relative="1" as="geometry">
            <mxPoint x="260" y="2523" as="sourcePoint" />
          </mxGeometry>
        </mxCell>
        <mxCell id="ugibJ8a83vaI0rzTOZ7H-1012" value="U" style="ellipse;whiteSpace=wrap;html=1;aspect=fixed;fontSize=18;fontStyle=1" vertex="1" parent="1">
          <mxGeometry x="235" y="2560" width="50" height="50" as="geometry" />
        </mxCell>
        <mxCell id="ugibJ8a83vaI0rzTOZ7H-1013" value="9" style="text;html=1;align=center;verticalAlign=middle;resizable=0;points=[];autosize=1;strokeColor=none;fillColor=none;" vertex="1" parent="1">
          <mxGeometry x="260" y="2525" width="30" height="30" as="geometry" />
        </mxCell>
        <mxCell id="ugibJ8a83vaI0rzTOZ7H-1014" style="edgeStyle=orthogonalEdgeStyle;rounded=0;orthogonalLoop=1;jettySize=auto;html=1;entryX=0.5;entryY=0;entryDx=0;entryDy=0;" edge="1" parent="1" target="ugibJ8a83vaI0rzTOZ7H-1015">
          <mxGeometry relative="1" as="geometry">
            <mxPoint x="260" y="2610.5" as="sourcePoint" />
          </mxGeometry>
        </mxCell>
        <mxCell id="ugibJ8a83vaI0rzTOZ7H-1015" value="T" style="ellipse;whiteSpace=wrap;html=1;aspect=fixed;fontSize=18;fontStyle=1" vertex="1" parent="1">
          <mxGeometry x="235" y="2647.5" width="50" height="50" as="geometry" />
        </mxCell>
        <mxCell id="ugibJ8a83vaI0rzTOZ7H-1016" value="7" style="text;html=1;align=center;verticalAlign=middle;resizable=0;points=[];autosize=1;strokeColor=none;fillColor=none;" vertex="1" parent="1">
          <mxGeometry x="260" y="2612.5" width="30" height="30" as="geometry" />
        </mxCell>
        <mxCell id="ugibJ8a83vaI0rzTOZ7H-1027" style="edgeStyle=orthogonalEdgeStyle;rounded=0;orthogonalLoop=1;jettySize=auto;html=1;entryX=0.5;entryY=0;entryDx=0;entryDy=0;" edge="1" parent="1" source="ugibJ8a83vaI0rzTOZ7H-1017" target="ugibJ8a83vaI0rzTOZ7H-1025">
          <mxGeometry relative="1" as="geometry">
            <Array as="points">
              <mxPoint x="240.5" y="3300" />
              <mxPoint x="402.5" y="3300" />
            </Array>
          </mxGeometry>
        </mxCell>
        <mxCell id="ugibJ8a83vaI0rzTOZ7H-1017" value="T" style="ellipse;whiteSpace=wrap;html=1;aspect=fixed;fontSize=18;fontStyle=1" vertex="1" parent="1">
          <mxGeometry x="215" y="3240" width="50" height="50" as="geometry" />
        </mxCell>
        <mxCell id="ugibJ8a83vaI0rzTOZ7H-1021" value="8" style="text;html=1;align=center;verticalAlign=middle;resizable=0;points=[];autosize=1;strokeColor=none;fillColor=none;" vertex="1" parent="1">
          <mxGeometry x="237.5" y="3210" width="30" height="30" as="geometry" />
        </mxCell>
        <mxCell id="ugibJ8a83vaI0rzTOZ7H-1022" style="edgeStyle=orthogonalEdgeStyle;rounded=0;orthogonalLoop=1;jettySize=auto;html=1;entryX=0.5;entryY=0;entryDx=0;entryDy=0;" edge="1" parent="1" target="ugibJ8a83vaI0rzTOZ7H-1023">
          <mxGeometry relative="1" as="geometry">
            <mxPoint x="402.5" y="3100" as="sourcePoint" />
          </mxGeometry>
        </mxCell>
        <mxCell id="ugibJ8a83vaI0rzTOZ7H-1026" style="edgeStyle=orthogonalEdgeStyle;rounded=0;orthogonalLoop=1;jettySize=auto;html=1;entryX=0.5;entryY=0;entryDx=0;entryDy=0;" edge="1" parent="1" source="ugibJ8a83vaI0rzTOZ7H-1023" target="ugibJ8a83vaI0rzTOZ7H-1025">
          <mxGeometry relative="1" as="geometry" />
        </mxCell>
        <mxCell id="ugibJ8a83vaI0rzTOZ7H-1023" value="M" style="ellipse;whiteSpace=wrap;html=1;aspect=fixed;fontSize=18;fontStyle=1" vertex="1" parent="1">
          <mxGeometry x="377.5" y="3130" width="50" height="50" as="geometry" />
        </mxCell>
        <mxCell id="ugibJ8a83vaI0rzTOZ7H-1024" value="28" style="text;html=1;align=center;verticalAlign=middle;resizable=0;points=[];autosize=1;strokeColor=none;fillColor=none;" vertex="1" parent="1">
          <mxGeometry x="397.5" y="3100" width="40" height="30" as="geometry" />
        </mxCell>
        <mxCell id="ugibJ8a83vaI0rzTOZ7H-1031" style="edgeStyle=orthogonalEdgeStyle;rounded=0;orthogonalLoop=1;jettySize=auto;html=1;entryX=0.5;entryY=0;entryDx=0;entryDy=0;" edge="1" parent="1" source="ugibJ8a83vaI0rzTOZ7H-1025" target="ugibJ8a83vaI0rzTOZ7H-1030">
          <mxGeometry relative="1" as="geometry" />
        </mxCell>
        <mxCell id="ugibJ8a83vaI0rzTOZ7H-1025" value="T" style="ellipse;whiteSpace=wrap;html=1;aspect=fixed;fontSize=18;fontStyle=1" vertex="1" parent="1">
          <mxGeometry x="377.5" y="3320" width="50" height="50" as="geometry" />
        </mxCell>
        <mxCell id="ugibJ8a83vaI0rzTOZ7H-1029" value="8" style="text;html=1;align=center;verticalAlign=middle;resizable=0;points=[];autosize=1;strokeColor=none;fillColor=none;" vertex="1" parent="1">
          <mxGeometry x="377.5" y="3270" width="30" height="30" as="geometry" />
        </mxCell>
        <mxCell id="ugibJ8a83vaI0rzTOZ7H-1030" value="A" style="ellipse;whiteSpace=wrap;html=1;aspect=fixed;fontSize=18;fontStyle=1" vertex="1" parent="1">
          <mxGeometry x="377.5" y="3400" width="50" height="50" as="geometry" />
        </mxCell>
        <mxCell id="ugibJ8a83vaI0rzTOZ7H-1032" value="4" style="text;html=1;align=center;verticalAlign=middle;resizable=0;points=[];autosize=1;strokeColor=none;fillColor=none;" vertex="1" parent="1">
          <mxGeometry x="397.5" y="3365" width="30" height="30" as="geometry" />
        </mxCell>
        <mxCell id="ugibJ8a83vaI0rzTOZ7H-1033" style="edgeStyle=orthogonalEdgeStyle;rounded=0;orthogonalLoop=1;jettySize=auto;html=1;entryX=0.5;entryY=0;entryDx=0;entryDy=0;" edge="1" parent="1" target="ugibJ8a83vaI0rzTOZ7H-1034">
          <mxGeometry relative="1" as="geometry">
            <mxPoint x="402.5" y="3450" as="sourcePoint" />
          </mxGeometry>
        </mxCell>
        <mxCell id="ugibJ8a83vaI0rzTOZ7H-1038" style="edgeStyle=orthogonalEdgeStyle;rounded=0;orthogonalLoop=1;jettySize=auto;html=1;entryX=0.5;entryY=0;entryDx=0;entryDy=0;" edge="1" parent="1" source="ugibJ8a83vaI0rzTOZ7H-1034" target="ugibJ8a83vaI0rzTOZ7H-1036">
          <mxGeometry relative="1" as="geometry">
            <Array as="points">
              <mxPoint x="402.5" y="3540" />
            </Array>
          </mxGeometry>
        </mxCell>
        <mxCell id="ugibJ8a83vaI0rzTOZ7H-1034" value="B" style="ellipse;whiteSpace=wrap;html=1;aspect=fixed;fontSize=18;fontStyle=1" vertex="1" parent="1">
          <mxGeometry x="377.5" y="3480" width="50" height="50" as="geometry" />
        </mxCell>
        <mxCell id="ugibJ8a83vaI0rzTOZ7H-1035" value="2" style="text;html=1;align=center;verticalAlign=middle;resizable=0;points=[];autosize=1;strokeColor=none;fillColor=none;" vertex="1" parent="1">
          <mxGeometry x="402.5" y="3450" width="30" height="30" as="geometry" />
        </mxCell>
        <mxCell id="ugibJ8a83vaI0rzTOZ7H-1042" style="edgeStyle=orthogonalEdgeStyle;rounded=0;orthogonalLoop=1;jettySize=auto;html=1;entryX=0.5;entryY=0;entryDx=0;entryDy=0;" edge="1" parent="1" source="ugibJ8a83vaI0rzTOZ7H-1036" target="ugibJ8a83vaI0rzTOZ7H-1041">
          <mxGeometry relative="1" as="geometry" />
        </mxCell>
        <mxCell id="ugibJ8a83vaI0rzTOZ7H-1036" value="B" style="ellipse;whiteSpace=wrap;html=1;aspect=fixed;fontSize=18;fontStyle=1" vertex="1" parent="1">
          <mxGeometry x="530" y="3560" width="50" height="50" as="geometry" />
        </mxCell>
        <mxCell id="ugibJ8a83vaI0rzTOZ7H-1040" value="3" style="text;html=1;align=center;verticalAlign=middle;resizable=0;points=[];autosize=1;strokeColor=none;fillColor=none;" vertex="1" parent="1">
          <mxGeometry x="527.5" y="3515" width="30" height="30" as="geometry" />
        </mxCell>
        <mxCell id="ugibJ8a83vaI0rzTOZ7H-1041" value="S" style="ellipse;whiteSpace=wrap;html=1;aspect=fixed;fontSize=18;fontStyle=1" vertex="1" parent="1">
          <mxGeometry x="530" y="3640" width="50" height="50" as="geometry" />
        </mxCell>
        <mxCell id="ugibJ8a83vaI0rzTOZ7H-1043" value="1" style="text;html=1;align=center;verticalAlign=middle;resizable=0;points=[];autosize=1;strokeColor=none;fillColor=none;" vertex="1" parent="1">
          <mxGeometry x="547.5" y="3610" width="30" height="30" as="geometry" />
        </mxCell>
      </root>
    </mxGraphModel>
  </diagram>
</mxfile>
